<svg width="35" height="33" viewBox="0 0 35 33" fill="none" xmlns="http://www.w3.org/2000/svg">
<path fill-rule="evenodd" clip-rule="evenodd" d="M3.86168 11.5403C1.09563 18.8844 4.91074 27.1821 12.3501 29.8525C12.6362 30.0434 12.9223 30.4248 12.9223 30.7109V32.0463C12.9223 32.237 12.9223 32.3324 12.8269 32.4277C12.7316 32.8092 12.3501 32.9999 11.9685 32.8093C6.62751 31.0925 2.52627 26.9912 0.809498 21.6503C-2.05178 12.5896 2.90785 2.9565 11.9685 0.0952227C12.0639 0 12.2546 0 12.3501 0C12.7316 0.0952234 12.9223 0.381351 12.9223 0.762931V2.09812C12.9223 2.57515 12.7316 2.86128 12.3501 3.05195C8.43973 4.48259 5.29232 7.53455 3.86168 11.5403ZM21.6016 0.476803C21.6968 0.095223 22.0784 -0.0954529 22.46 0.0952227C27.7055 1.81199 31.9022 5.91323 33.619 11.3497C36.4803 20.4103 31.5206 30.0434 22.46 32.9047C22.3645 32.9999 22.1739 32.9999 22.0784 32.9999C21.6968 32.9047 21.5062 32.6186 21.5062 32.237V30.9018C21.5062 30.4248 21.6968 30.1387 22.0784 29.948C25.9888 28.5173 29.1362 25.4654 30.5668 21.4596C33.3329 14.1155 29.5177 5.81778 22.0784 3.14741C21.7923 2.9565 21.5062 2.57515 21.5062 2.19357V0.858384C21.5062 0.667479 21.5062 0.572255 21.6016 0.476803ZM17.5004 14.8785C21.5061 15.3553 23.509 16.4998 23.509 19.8379C23.509 22.413 21.6016 24.4159 18.7403 24.8929V27.1819C18.6449 27.6587 18.3588 27.9449 17.9772 27.9449H16.5466C16.0698 27.8494 15.7836 27.5633 15.7836 27.1819V24.8929C12.6363 24.4159 11.1102 22.6991 10.7288 20.3149V20.2194C10.7288 19.8379 11.015 19.5517 11.3963 19.5517H13.0178C13.304 19.5517 13.5901 19.7426 13.6853 20.124C13.9714 21.5546 14.8298 22.6039 17.3097 22.6039C19.1217 22.6039 20.4571 21.5548 20.4571 20.0288C20.4571 18.5027 19.5987 17.9304 16.9281 17.4536C12.9224 16.9766 11.015 15.7369 11.015 12.5895C11.015 10.205 12.8269 8.29755 15.6882 7.91597V5.72241C15.7836 5.24538 16.0698 4.95925 16.4513 4.95925H17.882C18.3588 5.0547 18.6449 5.34083 18.6449 5.72241V8.01143C20.8384 8.2021 22.5552 9.82341 22.9367 11.9218V12.0172C22.9367 12.3986 22.6506 12.6847 22.269 12.6847H20.7432C20.4571 12.6847 20.171 12.494 20.0755 12.2079C19.5987 10.7772 18.6449 10.205 16.9281 10.205C15.0207 10.205 14.0669 11.0631 14.0669 12.3986C14.0669 13.734 14.6391 14.4969 17.5004 14.8785Z" fill="white"/>
</svg>
