<svg width="66" height="28" viewBox="0 0 66 28" fill="none" xmlns="http://www.w3.org/2000/svg">
<g clip-path="url(#clip0_1355_5868)">
<path d="M7.04097 27.4278H0V0.641113H14.4831V7.64265H7.04097V11.9788H14.0533V18.9812H7.04097V27.4278Z" fill="#96958D"/>
<path d="M37.6069 14.0214C37.6069 1.75171 26.9587 0.641113 22.5498 0.641113H15.4524V27.4025H22.5498L22.5389 20.4254V7.53202C26.9056 7.53202 30.6157 9.19922 30.6157 13.9787C30.6157 18.7573 26.9056 20.4245 22.5389 20.4245L22.5498 27.4016C28.0358 27.4025 37.6069 26.3163 37.6069 14.0214Z" fill="#96958D"/>
<path d="M45.8666 0.584473H38.8256V27.4269H45.8666V0.584473Z" fill="#96958D"/>
<path d="M60.2418 20.3419C56.8596 20.3419 54.0605 17.4936 54.0605 14.0006C54.0605 10.5077 56.8596 7.65849 60.2418 7.65849C63.3257 7.65849 64.9381 9.35357 66 11.5861V1.97487C66 1.97487 62.8824 0.529785 59.9772 0.529785C53.5245 0.529785 46.5333 6.66375 46.5333 14.0006C46.5333 22.983 53.2017 27.4706 59.9772 27.4706C62.8816 27.4706 66 26.0273 66 26.0273V16.4997C64.729 18.7644 63.3089 20.3419 60.2418 20.3419Z" fill="#96958D"/>
<path fill-rule="evenodd" clip-rule="evenodd" d="M60.3564 10.3321C58.3904 10.3321 56.7962 11.9793 56.7962 14.0119C56.7962 16.0445 58.3904 17.6917 60.3564 17.6917C62.3225 17.6917 63.9167 16.0445 63.9167 14.0119C63.9167 11.9793 62.3225 10.3321 60.3564 10.3321ZM56.5083 14.0119C56.5083 11.8159 58.2309 10.0352 60.3564 10.0352C62.482 10.0352 64.2046 11.8159 64.2046 14.0119C64.2046 16.208 62.482 17.9887 60.3564 17.9887C58.2309 17.9887 56.5083 16.208 56.5083 14.0119Z" fill="#96958D"/>
<path fill-rule="evenodd" clip-rule="evenodd" d="M60.3227 8.64558C57.448 8.64558 55.1172 11.0541 55.1172 14.0257C55.1172 16.9973 57.448 19.4058 60.3227 19.4058C63.1974 19.4058 65.5282 16.9973 65.5282 14.0257C65.5282 11.0541 63.1974 8.64558 60.3227 8.64558ZM54.8293 14.0257C54.8293 10.8906 57.2885 8.34863 60.3227 8.34863C63.3569 8.34863 65.8161 10.8906 65.8161 14.0257C65.8161 17.1608 63.3569 19.7027 60.3227 19.7027C57.2885 19.7027 54.8293 17.1608 54.8293 14.0257Z" fill="#96958D"/>
<path d="M59.1049 10.8706V11.5962H58.9515V11.0422H58.8933L58.9633 10.8706H59.1049Z" fill="#96958D"/>
<path d="M59.4572 11.0952C59.4572 11.2442 59.5903 11.3661 59.7555 11.3661C59.8229 11.3661 59.8836 11.347 59.935 11.313C59.8423 11.556 59.5962 11.4576 59.5448 11.4384L59.4799 11.5708C59.56 11.6544 60.096 11.7084 60.096 11.1788C60.096 11.1187 60.0522 10.8252 59.7555 10.8252V10.955C59.8415 10.955 59.9266 11.0168 59.9266 11.0952C59.9266 11.1728 59.8406 11.2346 59.7555 11.2346C59.6704 11.2346 59.6004 11.1728 59.6004 11.0952C59.6004 11.0168 59.6704 10.955 59.7555 10.955V10.8252C59.5903 10.8243 59.4572 10.9454 59.4572 11.0952Z" fill="#96958D"/>
<path d="M60.5629 11.6294C60.4036 11.6294 60.3109 11.5579 60.2848 11.524L60.3767 11.429C60.4188 11.4543 60.4921 11.5013 60.5427 11.5013C60.5933 11.5013 60.6868 11.4787 60.6868 11.3968C60.6868 11.3559 60.6514 11.2897 60.5022 11.3097V11.1834C60.6582 11.1973 60.6952 11.1398 60.6952 11.0867C60.6952 11.0336 60.6388 10.99 60.5688 10.99C60.514 10.99 60.4601 11.0231 60.4137 11.0763L60.3118 10.97C60.3581 10.8959 60.4517 10.8472 60.5621 10.8472C60.7163 10.8472 60.8318 10.9456 60.8318 11.0684C60.8318 11.132 60.8057 11.1912 60.7492 11.2322C60.8099 11.2679 60.8352 11.3472 60.8352 11.3968C60.8368 11.5179 60.7323 11.6294 60.5629 11.6294Z" fill="#96958D"/>
<path d="M61.3223 11.6294C61.163 11.6294 61.0703 11.5579 61.045 11.524L61.1378 11.429C61.1791 11.4543 61.2524 11.5013 61.3029 11.5013C61.3535 11.5013 61.4471 11.4787 61.4471 11.3968C61.4471 11.3559 61.4125 11.2897 61.2633 11.3097V11.1834C61.4176 11.1973 61.4563 11.1398 61.4563 11.0867C61.4563 11.0336 61.3999 10.99 61.3291 10.99C61.2751 10.99 61.2212 11.0231 61.1757 11.0763L61.072 10.97C61.1184 10.8959 61.2136 10.8472 61.3223 10.8472C61.4774 10.8472 61.5929 10.9456 61.5929 11.0684C61.5929 11.132 61.5676 11.1912 61.5111 11.2322C61.5701 11.2679 61.5971 11.3472 61.5971 11.3968C61.5971 11.5179 61.4917 11.6294 61.3223 11.6294Z" fill="#96958D"/>
<path d="M59.0922 16.3434V15.9436H59.0172V16.4209H59.2683V16.2371H59.3922V16.4209H59.6426V15.9436H59.758C59.8954 15.9436 59.8954 16.0167 59.9864 16.0167C60.0547 16.0167 60.0783 15.9436 60.128 15.9436C60.1769 15.9436 60.1921 16.0341 60.257 16.0341C60.321 16.0341 60.3371 15.9436 60.3859 15.9436C60.4348 15.9436 60.4584 16.0167 60.5275 16.0167C60.6186 16.0167 60.6447 15.9436 60.7829 15.9436C60.8596 15.9436 60.9051 15.9793 60.9051 16.0707C60.9051 16.2275 61.0282 16.3538 61.1799 16.3538C61.3316 16.3538 61.4538 16.2267 61.4538 16.0707V15.6631C61.4538 15.5063 61.3307 15.3809 61.1799 15.3809L61.1816 15.4793C61.2701 15.4793 61.3442 15.5542 61.3442 15.6474C61.3442 15.7972 61.2844 15.866 61.2844 15.866C61.2844 15.866 61.3442 15.9348 61.3442 16.0855C61.3442 16.1779 61.2701 16.2554 61.1816 16.2554C61.0914 16.2554 61.0172 16.1779 61.0172 16.0855C61.0172 15.9348 61.0779 15.866 61.0779 15.866C61.0779 15.866 61.0172 15.7972 61.0172 15.6474C61.0172 15.5542 61.0914 15.4793 61.1816 15.4793L61.1807 15.3809C61.029 15.3809 60.906 15.5072 60.906 15.6631C60.906 15.7545 60.8605 15.7911 60.7838 15.7911C60.6455 15.7911 60.6202 15.7162 60.5284 15.7162C60.4593 15.7162 60.4365 15.7859 60.3868 15.7859C60.3371 15.7859 60.3219 15.6979 60.2578 15.6979C60.1929 15.6979 60.1769 15.7859 60.1289 15.7859C60.0792 15.7859 60.0556 15.7162 59.9873 15.7162C59.8963 15.7162 59.8963 15.7911 59.7589 15.7911C59.6223 15.7911 58.9009 15.7911 58.9009 15.7911V15.9436H59.018H59.093H59.5684V16.3434H59.4689V16.1587H59.1933V16.3434H59.0922Z" fill="#96958D"/>
<path d="M59.3384 9.05469L59.7615 9.80641C59.7009 9.8125 59.6368 9.8247 59.5736 9.83951L59.4977 9.70362L59.2651 9.75763L59.2811 9.57035L59.4059 9.54161L59.2988 9.3491L59.2811 9.57035L59.2651 9.75763L59.2533 9.91442C59.1909 9.92835 59.1277 9.94665 59.0696 9.96842L59.1379 9.10172L59.3384 9.05469Z" fill="#96958D"/>
<path d="M63.7464 10.5213L63.5079 10.7382C63.4792 10.7652 63.4742 10.8122 63.5012 10.8436L63.6765 11.0509L63.5711 11.1441L63.3486 10.8819L63.223 10.9969L63.4953 11.3174C63.5298 11.3566 63.588 11.3601 63.6267 11.3262L63.8636 11.1171C63.8939 11.0892 63.8981 11.0422 63.872 11.0117L63.6933 10.8026L63.7978 10.7094L64.0246 10.976L64.1569 10.861L63.8754 10.5309C63.8425 10.4917 63.7852 10.4865 63.7464 10.5213Z" fill="#96958D"/>
<path d="M56.6228 12.1514C56.6001 12.2019 56.5748 12.2524 56.552 12.3073L55.8449 11.945L56.0674 11.4824L56.2208 11.5643L56.0758 11.8666L56.1972 11.9293L56.3211 11.6706L56.4753 11.7524L56.3523 12.0103L56.6228 12.1514Z" fill="#96958D"/>
<path d="M63.5298 10.1895C63.5761 10.2287 63.582 10.2975 63.5458 10.3445L63.1766 10.8088C63.1387 10.8558 63.0721 10.8628 63.0249 10.8236C62.9583 10.7687 62.8985 10.706 62.8825 10.6938C62.8648 10.679 62.8041 10.632 62.7401 10.5823C62.6929 10.5457 62.6878 10.4726 62.724 10.4255L63.0924 9.96213C63.1286 9.91509 63.1977 9.90813 63.2441 9.94732L63.1859 10.1233L62.8993 10.4821L63.0924 10.645L63.3764 10.2844L63.1859 10.1233L63.2441 9.94732L63.5298 10.1895Z" fill="#96958D"/>
<path d="M58.5672 9.82958L58.413 9.90101L58.343 9.73725L58.5116 9.65885C58.5335 9.6484 58.5428 9.62314 58.5335 9.60136L58.5116 9.55171C58.5023 9.52994 58.4779 9.51949 58.4568 9.52994L58.2865 9.61008L58.343 9.73725L58.413 9.90101L58.5369 10.1867C58.4753 10.2163 58.4239 10.2416 58.375 10.2686L58.0514 9.52384L58.5192 9.30695C58.5571 9.28866 58.6009 9.30695 58.6186 9.34527L58.7248 9.59091C58.7391 9.62663 58.724 9.66931 58.6894 9.68499C58.6877 9.68673 58.686 9.68934 58.6877 9.69108C58.6886 9.6937 58.6911 9.69457 58.6928 9.6937C58.7282 9.67802 58.7695 9.6937 58.7846 9.73028C58.8057 9.7808 58.8706 9.92888 58.8748 9.94108C58.8816 9.95676 58.8959 9.99857 58.9439 9.99247L58.949 10.0047C58.89 10.0273 58.8293 10.0534 58.7644 10.0813C58.7408 10.0726 58.7248 10.0543 58.713 10.0273C58.7012 10.0038 58.665 9.90014 58.649 9.86181C58.6363 9.82958 58.5992 9.81564 58.5672 9.82958Z" fill="#96958D"/>
<path d="M60.4088 9.76872L60.4054 9.5919L60.086 9.60322L60.0624 8.96387L59.8955 8.96996L59.925 9.78527C60.0944 9.77133 60.2512 9.76611 60.4088 9.76872Z" fill="#96958D"/>
<path d="M56.9878 11.2293L57.126 11.3356C57.0291 11.4627 56.9364 11.5934 56.8428 11.7406L56.1989 11.2676L56.488 10.8486L56.6271 10.9549L56.4374 11.2293L56.5487 11.3112L56.7105 11.076L56.8496 11.1814L56.6878 11.4157L56.8015 11.5002L56.9878 11.2293Z" fill="#96958D"/>
<path d="M57.233 11.2043L56.6692 10.6198L56.7459 10.5405L56.9102 10.6198L57.2255 10.9508L57.4024 10.7696L57.0839 10.4395L56.9102 10.6198L56.7459 10.5405L57.0088 10.2705C57.051 10.227 57.1184 10.2278 57.1606 10.2714L57.5685 10.6973C57.6106 10.7418 57.6106 10.8114 57.5676 10.855C57.5078 10.9177 57.4421 10.9743 57.4252 10.9891C57.4126 11.0039 57.2878 11.1433 57.233 11.2043Z" fill="#96958D"/>
<path d="M58.1011 10.2295L58.1964 10.3776C58.0632 10.463 57.9334 10.5545 57.796 10.6581L57.3477 9.98739L57.7564 9.69385L57.8517 9.84367L57.5845 10.0353L57.662 10.152L57.8913 9.98652L57.9865 10.1363L57.7581 10.3001L57.8382 10.4194L58.1011 10.2295Z" fill="#96958D"/>
<path d="M60.756 9.78709L60.8943 8.97266L60.9988 8.99182L61.0325 9.17561L60.9516 9.63292L61.196 9.67734L61.2744 9.22004L61.0325 9.17561L60.9988 8.99182L61.3654 9.05802C61.4236 9.06934 61.4623 9.12596 61.4531 9.18694L61.3494 9.77664C61.3393 9.83761 61.2836 9.87855 61.2246 9.86723C61.1412 9.85242 61.0595 9.8289 61.0367 9.82542C61.0165 9.8228 60.8353 9.79754 60.756 9.78709Z" fill="#96958D"/>
<path d="M62.0373 9.96302L61.9749 10.1268C61.8308 10.0623 61.6841 10.004 61.5231 9.94995L61.7979 9.18604L62.2657 9.36373L62.2033 9.5301L61.8965 9.41425L61.8485 9.54491L62.1106 9.64508L62.0474 9.81145L61.7869 9.71128L61.7372 9.84629L62.0373 9.96302Z" fill="#96958D"/>
<path d="M62.4014 9.98931L62.4882 9.82904L62.6534 9.92572C62.6736 9.93792 62.7006 9.92921 62.7115 9.9083L62.7376 9.85952C62.7486 9.83862 62.741 9.81074 62.7199 9.80029L62.5556 9.70361L62.4873 9.82904L62.4014 9.98931L62.2497 10.2646C62.1881 10.2315 62.1376 10.2053 62.0878 10.1783L62.4823 9.45361L62.9374 9.71928C62.9736 9.73932 62.9871 9.7881 62.9652 9.82555L62.7966 10.1348C62.7781 10.1687 62.7351 10.1818 62.7014 10.1618L62.4014 9.98931Z" fill="#96958D"/>
<path d="M63.6798 11.568L64.333 11.1133L64.4249 11.257L63.7717 11.7108C63.7565 11.6873 63.7422 11.662 63.7253 11.6385C63.711 11.6141 63.6941 11.5906 63.6798 11.568Z" fill="#96958D"/>
<path d="M64.5614 11.861L64.011 12.1519C63.9992 12.1249 63.9866 12.0997 63.9739 12.0735C63.9605 12.0483 63.9487 12.023 63.9352 11.9986L64.4839 11.7077L64.4063 11.5474L64.5589 11.4673L64.7906 11.9368L64.6381 12.0169L64.5614 11.861Z" fill="#96958D"/>
<path d="M55.9097 12.5737L55.9021 12.7924L56.0993 12.8751L55.8945 12.9361L55.8793 13.1539L55.7613 12.9727L55.554 13.0249L55.6846 12.8516L55.5726 12.6669L55.7723 12.741L55.9097 12.5737Z" fill="#96958D"/>
<path d="M64.7239 12.5737L64.7315 12.7924L64.5334 12.8751L64.7383 12.9361L64.7526 13.1539L64.8731 12.9727L65.0788 13.0249L64.949 12.8516L65.0602 12.6669L64.8613 12.741L64.7239 12.5737Z" fill="#96958D"/>
<path d="M58.4981 18.4822L58.4787 18.5283L58.2537 18.4229L58.44 17.9987L58.665 18.1059L58.6448 18.1512L58.7982 18.2243L58.8462 18.112C58.8707 18.058 58.8462 17.9918 58.7931 17.9656C58.7164 17.9299 58.6355 17.8959 58.617 17.8872C58.5993 17.8785 58.5293 17.8463 58.4568 17.808C58.4046 17.7801 58.3388 17.8071 58.3144 17.8628L58.075 18.4073C58.0506 18.4621 58.0742 18.5301 58.1273 18.5553L58.4653 18.7139C58.5192 18.74 58.5833 18.7156 58.6077 18.6599L58.6532 18.5562L58.4981 18.4822Z" fill="#96958D"/>
<path d="M56.2174 13.8386L55.4311 13.7872L55.442 13.6147L56.2292 13.667C56.225 13.6958 56.2233 13.7254 56.2225 13.755C56.2208 13.7837 56.2191 13.8107 56.2174 13.8386Z" fill="#96958D"/>
<path d="M56.1886 14.8531L55.881 14.9367C55.8422 14.9463 55.8186 14.9881 55.8288 15.0273L55.897 15.2947L55.7613 15.3296L55.6754 14.9907L55.5127 15.036L55.618 15.4498C55.6324 15.5003 55.6829 15.5308 55.7318 15.5169L56.0344 15.4402C56.074 15.4298 56.0985 15.3879 56.0875 15.3496L56.0192 15.0805L56.1516 15.0456L56.2392 15.3888L56.4069 15.3453L56.2982 14.9211C56.2873 14.8705 56.2384 14.8401 56.1886 14.8531Z" fill="#96958D"/>
<path d="M55.7875 14.5716L56.2418 14.5246C56.2443 14.5534 56.2468 14.5821 56.2494 14.6126C56.2527 14.6413 56.2553 14.6692 56.2586 14.6971L55.4748 14.7755L55.4579 14.6039L55.9207 14.2398L55.4268 14.2537L55.4225 14.0821L56.2106 14.0586C56.2106 14.0873 56.2114 14.1178 56.2123 14.1466C56.2131 14.1753 56.2131 14.2032 56.214 14.2328L55.7875 14.5716Z" fill="#96958D"/>
<path d="M55.9316 16.2398C55.9552 16.2955 56.0193 16.3216 56.0724 16.2973L56.7003 16.0176L56.6329 15.8565L56.069 16.1117L55.9704 15.8757L56.5334 15.6248L56.466 15.4619L55.8415 15.7424C55.7867 15.7677 55.758 15.8347 55.785 15.8905L55.9316 16.2398Z" fill="#96958D"/>
<path d="M56.7525 17.5125L56.8882 17.4367L57.0492 17.3479L57.2397 17.2433L57.1402 17.4411L57.0492 17.3479L56.8882 17.4367L57.0584 17.6083L56.9843 17.7512L57.1208 17.8897L57.5018 17.1197L57.3551 16.9707L56.616 17.3749L56.7525 17.5125Z" fill="#96958D"/>
<path d="M57.0838 16.6352C57.1074 16.6701 57.0998 16.718 57.0652 16.7424L56.8495 16.8948C56.8191 16.9175 56.7745 16.9096 56.7542 16.8765C56.7526 16.8739 56.7492 16.8739 56.7475 16.8756C56.7458 16.8765 56.7433 16.8791 56.7458 16.8809C56.7677 16.9131 56.761 16.9593 56.729 16.981C56.6826 17.0124 56.5545 17.1039 56.5418 17.1117C56.5292 17.1213 56.4904 17.1439 56.5073 17.1901L56.4997 17.1953L56.3868 17.0263C56.391 17.0002 56.4087 16.9793 56.4306 16.9628C56.4534 16.9462 56.5435 16.8913 56.5772 16.8678C56.6051 16.8486 56.6126 16.8086 56.5941 16.7772L56.498 16.6335L56.6405 16.5333L56.7467 16.6919C56.7593 16.711 56.7854 16.7162 56.8048 16.7032L56.8486 16.6727C56.8672 16.6596 56.8722 16.6318 56.8596 16.6126L56.7534 16.4541L56.6405 16.5342L56.498 16.6344L56.246 16.8138L56.1432 16.6614L56.793 16.1997C56.879 16.3417 56.9826 16.5081 57.0838 16.6352Z" fill="#96958D"/>
<path d="M59.3872 18.3466L59.4327 18.1768C59.2793 18.1385 59.1284 18.0958 58.9666 18.04L58.7458 18.8231L59.2245 18.9668L59.27 18.7944L58.9565 18.7003L58.9944 18.5662L59.2624 18.6463L59.3088 18.4747L59.0425 18.3954L59.0804 18.2569L59.3872 18.3466Z" fill="#96958D"/>
<path d="M57.8634 17.9994L58.1171 17.6066C58.1398 17.624 58.1643 17.6397 58.1879 17.6562C58.2106 17.6728 58.2334 17.6876 58.2553 17.7041L57.8179 18.3792L57.6788 18.2825L57.6982 17.6832L57.3973 18.0874L57.2658 17.982L57.7471 17.3374C57.7681 17.3557 57.7909 17.3749 57.812 17.3914C57.8339 17.4097 57.8566 17.4254 57.8785 17.4428L57.8634 17.9994Z" fill="#96958D"/>
<path d="M60.7644 19.074C60.7054 19.0827 60.6514 19.04 60.643 18.9799L60.5638 18.385C60.5562 18.3249 60.5967 18.2674 60.6556 18.2587C60.7408 18.2465 60.8251 18.2421 60.8461 18.2404C60.8672 18.2369 60.943 18.223 61.0214 18.209C61.0796 18.1968 61.1352 18.2421 61.1436 18.3031L61.2237 18.8954C61.2321 18.9564 61.1917 19.013 61.1318 19.0217L61.0459 18.8562L60.986 18.3963L60.7408 18.4311L60.8023 18.8919L61.0459 18.8562L61.1318 19.0208L60.7644 19.074Z" fill="#96958D"/>
<path d="M62.4837 17.6395C62.5208 17.6195 62.5671 17.6334 62.5874 17.6717L62.7475 17.9853C62.7652 18.0201 62.7526 18.0646 62.7188 18.0837L62.4154 18.251L62.3328 18.0898L62.5006 17.9975C62.5199 17.9844 62.5284 17.96 62.5183 17.9383L62.493 17.8895C62.482 17.8677 62.4559 17.8599 62.4357 17.8712L62.2679 17.9627L62.3337 18.0898L62.4163 18.251L62.5638 18.5349C62.5039 18.5698 62.4508 18.5933 62.4036 18.6238L62.0252 17.893C62.1297 17.8425 62.3573 17.7196 62.4837 17.6395Z" fill="#96958D"/>
<path d="M64.7838 16.1074L64.2166 15.8548L64.1475 16.0185L63.9899 15.948C64.059 15.8164 64.1424 15.6117 64.1922 15.4619L64.3506 15.5333L64.2823 15.6954L64.8496 15.9488L64.7838 16.1074Z" fill="#96958D"/>
<path d="M60.273 18.8662L60.2713 18.9176L60.0252 18.9062L60.0412 18.442L60.289 18.4524L60.2873 18.5029L60.4542 18.509L60.4584 18.388C60.4601 18.3261 60.4138 18.2747 60.3539 18.2721C60.2696 18.2686 60.1854 18.2686 60.1626 18.2686C60.1432 18.2678 60.0648 18.266 59.9856 18.2582C59.9266 18.253 59.8761 18.3043 59.8735 18.3662L59.8516 18.9646C59.8499 19.0256 59.8954 19.077 59.9544 19.0796L60.3253 19.0944C60.3851 19.097 60.4348 19.05 60.4365 18.9881L60.4416 18.874L60.273 18.8662Z" fill="#96958D"/>
<path d="M61.7767 17.9968C61.8163 17.9837 61.8593 18.0072 61.8703 18.049L61.9478 18.306C61.9596 18.3435 61.9386 18.3844 61.9023 18.3957C61.8998 18.3966 61.8981 18.3992 61.8998 18.4018C61.8998 18.4053 61.9023 18.4062 61.9048 18.4053C61.9411 18.3931 61.9799 18.414 61.9925 18.4523C62.0068 18.5063 62.0532 18.6605 62.0574 18.6753C62.0633 18.6901 62.0726 18.7337 62.1189 18.7328L62.1223 18.7415L61.931 18.8016C61.9091 18.7894 61.8939 18.7677 61.8863 18.7398C61.877 18.7128 61.8534 18.6065 61.8416 18.5664C61.8307 18.5325 61.7953 18.5133 61.7624 18.5246L61.6014 18.576L61.55 18.407L61.7278 18.3496C61.7498 18.3417 61.7624 18.3173 61.7557 18.2955L61.7396 18.2433C61.7321 18.2198 61.7093 18.2076 61.6874 18.2145L61.5096 18.272L61.55 18.407L61.6014 18.576L61.6924 18.8792L61.5205 18.9332L61.287 18.1553C61.4455 18.1109 61.6301 18.0586 61.7767 17.9968Z" fill="#96958D"/>
<path d="M63.2314 18.1103C63.185 18.1495 63.1176 18.1417 63.0813 18.0946L62.7164 17.6269C62.6776 17.5798 62.6844 17.5084 62.7307 17.4701C62.7973 17.4152 62.8673 17.3656 62.885 17.3516C62.9018 17.3386 62.9591 17.2863 63.0173 17.2314C63.0636 17.1887 63.1336 17.1992 63.1707 17.2471L63.5356 17.7114C63.5744 17.7593 63.5668 17.829 63.5196 17.8682L63.3645 17.775L63.0813 17.4117L62.8883 17.5729L63.1732 17.9352L63.3654 17.775L63.5204 17.8682L63.2314 18.1103Z" fill="#96958D"/>
<path d="M63.5609 16.6442C63.5878 16.612 63.635 16.6085 63.6662 16.6372L63.8617 16.8149C63.8896 16.8419 63.8921 16.8872 63.8668 16.9168C63.8643 16.9186 63.8651 16.9221 63.8668 16.9229C63.8693 16.9255 63.8719 16.9255 63.8735 16.9221C63.8988 16.8942 63.9427 16.8898 63.9705 16.9168C64.0118 16.9543 64.1289 17.0614 64.139 17.0728C64.1517 17.0823 64.1812 17.1146 64.2208 17.0876L64.2275 17.0954L64.0961 17.2487C64.0716 17.2513 64.0463 17.2383 64.0261 17.2191C64.0067 17.2008 63.9325 17.125 63.9022 17.0954C63.8761 17.0728 63.8365 17.0745 63.8137 17.1015L63.7016 17.2322L63.5718 17.1128L63.6949 16.9682C63.7117 16.9499 63.71 16.9221 63.6923 16.9073L63.6536 16.8707C63.6359 16.8559 63.6089 16.8576 63.5937 16.8759L63.4707 17.0196L63.571 17.1128L63.7008 17.2322L63.93 17.4412L63.8103 17.5806L63.2212 17.0405C63.3341 16.9186 63.4648 16.7749 63.5609 16.6442Z" fill="#96958D"/>
<path d="M64.4088 16.8541L64.3059 16.7339L64.1879 16.5911L64.0472 16.4221L64.2545 16.477L64.1879 16.5911L64.3059 16.7339L64.4315 16.5249L64.5815 16.5667L64.6827 16.3994L63.8719 16.186L63.7648 16.3655L64.3085 17.0214L64.4088 16.8541Z" fill="#96958D"/>
<path d="M64.2857 15.1626L65.0409 15.3969L64.992 15.5624L64.2368 15.3272C64.2461 15.3011 64.2537 15.2732 64.2621 15.2445C64.2722 15.2166 64.279 15.1896 64.2857 15.1626Z" fill="#96958D"/>
<path d="M64.8875 13.7582L64.4306 13.7765C64.4306 13.7486 64.429 13.7182 64.4281 13.6894C64.4273 13.6607 64.4264 13.6328 64.4247 13.6032L65.2128 13.5762L65.2178 13.7486L64.7349 14.0831L65.228 14.0997L65.2237 14.2713L64.4349 14.2451C64.4365 14.2173 64.4374 14.1885 64.4382 14.1589C64.4391 14.1293 64.4408 14.1014 64.4416 14.0727L64.8875 13.7582Z" fill="#96958D"/>
<path d="M65.1395 15.0194C65.1294 15.0804 65.0763 15.1213 65.0164 15.1126L64.4425 15.0212C64.3835 15.0116 64.343 14.9558 64.3523 14.894C64.3649 14.8078 64.3851 14.7224 64.3877 14.6998C64.3902 14.6797 64.4003 14.5996 64.4071 14.5177C64.4138 14.4567 64.472 14.4158 64.531 14.4245L65.1024 14.5142C65.1614 14.5229 65.2018 14.5796 65.1926 14.6414L65.0156 14.6797L64.5706 14.6083L64.5343 14.8626L64.9802 14.9306L65.0156 14.6797L65.1926 14.6414L65.1395 15.0194Z" fill="#96958D"/>
<path d="M59.1546 12.3184L58.8747 13.4446H58.9439L59.1428 12.6494V13.4446H59.2195V12.6494L59.4175 13.4446H58.8739C58.9177 13.577 59.0669 13.6502 59.1782 13.6502C59.2886 13.6502 59.4386 13.577 59.4807 13.4446L59.2009 12.3184H59.1546Z" fill="#96958D"/>
<path d="M60.3152 11.8198L60.445 11.8808L60.4323 11.9043C60.3708 11.9043 60.3565 12.0254 60.3565 12.0855C60.3565 12.1203 60.3893 12.1691 60.4483 12.1691C60.5065 12.1691 60.611 12.1142 60.7543 12.1142C60.8976 12.1142 61.0484 12.1761 61.2035 12.1761C61.3611 12.1761 61.3965 12.1308 61.4344 12.1308C61.4741 12.1308 61.5524 12.1491 61.5524 12.2074C61.5524 12.2658 61.4741 12.2832 61.4344 12.2832C61.3957 12.2832 61.3603 12.2379 61.2035 12.2379C61.0476 12.2379 60.8976 12.3006 60.7543 12.3006C60.611 12.3006 60.5065 12.2449 60.4483 12.2449C60.3893 12.2449 60.3565 12.2937 60.3565 12.3285C60.3565 12.3625 60.429 12.4322 60.429 12.4322L60.3143 12.6116L60.2014 12.4322C60.2014 12.4322 60.2713 12.3625 60.2713 12.3285C60.2713 12.2937 60.2393 12.2449 60.1812 12.2449C60.1222 12.2449 60.0177 12.3006 59.8752 12.3006C59.7311 12.3006 59.5811 12.2379 59.4252 12.2379C59.2692 12.2379 59.2321 12.2832 59.1942 12.2832C59.1538 12.2832 59.0754 12.2649 59.0754 12.2074C59.0754 12.15 59.1538 12.1308 59.1942 12.1308C59.233 12.1308 59.2692 12.1761 59.4252 12.1761C59.5811 12.1761 59.7311 12.1142 59.8752 12.1142C60.0177 12.1142 60.1222 12.1691 60.1812 12.1691C60.2393 12.1691 60.2713 12.1203 60.2713 12.0855C60.2713 12.0254 60.2587 11.9043 60.1963 11.9043L60.1837 11.8808L60.3152 11.8198Z" fill="#96958D"/>
<path d="M61.4766 12.3184L61.7564 13.4446H61.6881L61.4892 12.6494V13.4446H61.4125V12.6494L61.2136 13.4446H61.7572C61.7125 13.577 61.5642 13.6502 61.4538 13.6502C61.3434 13.6502 61.1934 13.577 61.1504 13.4446L61.431 12.3184H61.4766Z" fill="#96958D"/>
<path d="M60.3144 13.1156L62.6734 15.5006C62.6836 15.4753 62.6768 15.4169 62.6633 15.3507L60.3144 12.9736L57.9654 15.3507C57.9511 15.4169 57.946 15.4753 57.9553 15.5006L60.3144 13.1156Z" fill="#96958D"/>
<path d="M60.3143 14.1885L62.2005 16.0961L62.2519 16.009L60.3143 14.0474L58.3792 16.009L58.4297 16.0961L60.3143 14.1885Z" fill="#96958D"/>
<path d="M63.0998 12.3747C63.2271 12.4287 63.4302 12.6656 63.3021 12.7972C62.8352 12.6256 62.6894 13.048 62.6894 13.2858C62.6894 13.8346 63.0914 14.1168 63.0914 15.0933C63.0914 15.4016 63.0138 16.5915 61.4453 16.9652C61.2018 17.0244 60.6666 17.1707 60.316 17.5078V17.4068C60.7011 17.0383 61.442 16.9077 61.5617 16.8693C62.1483 16.6882 63.029 16.1899 63.029 15.0715C63.029 14.3842 62.7559 13.845 62.5006 13.845C62.3927 13.845 62.4264 13.9818 62.4871 14.0741C62.5233 14.1281 62.5655 14.2196 62.4677 14.1996C62.3699 14.1795 62.2401 14.2135 62.2401 14.3032C62.2401 14.3476 62.2941 14.3476 62.3244 14.3302C62.3548 14.3128 62.3927 14.3006 62.4475 14.3006C62.5562 14.3006 62.6733 14.3712 62.6733 14.4522C62.6733 14.5332 62.5233 14.4992 62.5233 14.5637C62.5233 14.6072 62.8824 14.8703 62.8824 15.1795C62.8824 15.2771 62.8428 15.2396 62.8208 15.1795C62.7981 15.1194 62.7357 15.0384 62.6767 15.0384C62.6186 15.0384 62.5857 15.0619 62.6118 15.1116C62.6371 15.1629 62.7357 15.318 62.7357 15.5331C62.7357 15.7492 62.5815 16.0323 62.4812 16.1594C62.4315 16.223 62.4146 16.183 62.4053 16.1594C62.396 16.1368 62.3733 16.0627 62.3236 16.0627C62.2393 16.0627 62.2907 16.48 61.3619 16.7361C61.1765 16.7875 60.7062 16.9085 60.3151 17.2178C59.924 16.9094 59.4537 16.7875 59.2692 16.7361C58.3387 16.48 58.3909 16.0627 58.3067 16.0627C58.2569 16.0627 58.2342 16.1368 58.2241 16.1594C58.2148 16.183 58.1996 16.223 58.1482 16.1594C58.0487 16.0323 57.8945 15.7492 57.8945 15.5331C57.8945 15.318 57.9914 15.1621 58.0184 15.1116C58.0437 15.0619 58.0108 15.0384 57.9535 15.0384C57.8945 15.0384 57.8321 15.1194 57.8102 15.1795C57.7883 15.2396 57.7479 15.2771 57.7479 15.1795C57.7479 14.8703 58.1069 14.6072 58.1069 14.5637C58.1069 14.4992 57.956 14.5332 57.956 14.4522C57.956 14.3712 58.074 14.3006 58.1811 14.3006C58.2375 14.3006 58.2763 14.3137 58.3058 14.3302C58.3345 14.3476 58.3901 14.3476 58.3901 14.3032C58.3901 14.2126 58.2603 14.1787 58.1625 14.1996C58.0639 14.2196 58.1069 14.129 58.1431 14.0741C58.2038 13.9827 58.2375 13.845 58.1297 13.845C57.8751 13.845 57.6012 14.3842 57.6012 15.0715C57.6012 16.1899 58.482 16.6882 59.0686 16.8693C59.1891 16.9077 59.9291 17.0383 60.3143 17.4068V17.5078C59.9628 17.1707 59.4259 17.0244 59.1815 16.9652C57.6122 16.5906 57.5355 15.4007 57.5355 15.0933C57.5355 14.1168 57.9375 13.8346 57.9375 13.2858C57.9375 13.0489 57.7908 12.6256 57.3248 12.7972C57.1983 12.6656 57.4015 12.4278 57.5287 12.3747C57.5034 12.2562 57.8937 11.7362 58.5249 11.7362C58.9329 11.7362 59.2523 11.9392 59.6872 11.9392C59.8524 11.9392 60.1482 11.8608 60.3143 11.7554V11.8468C60.1482 11.9522 59.8524 12.0315 59.6872 12.0315C59.2523 12.0315 58.9329 11.8286 58.5249 11.8286C58.2156 11.8286 57.9763 11.9557 57.8237 12.0864C57.8465 12.0907 57.924 12.1212 57.9333 12.1282C57.9729 12.1569 57.9527 12.2014 57.9004 12.1813C57.8667 12.1683 57.822 12.1421 57.7731 12.1352C57.7504 12.1587 57.731 12.1813 57.715 12.2022C57.8153 12.2022 57.8785 12.2336 57.9206 12.2589C57.9662 12.2841 57.9518 12.3381 57.8937 12.3102C57.8423 12.2885 57.7782 12.2562 57.6695 12.2667C57.6518 12.2963 57.6408 12.3216 57.6383 12.3416L57.6619 12.4444C57.5801 12.4444 57.3551 12.5254 57.3981 12.6691C57.4731 12.6473 58.0041 12.6595 58.0041 13.2161C58.0041 13.3093 58.037 13.3006 58.037 13.2701C58.0892 13.0167 57.9232 12.7345 57.7175 12.6334C57.6375 12.5942 57.6551 12.5228 57.7698 12.5864C57.8793 12.6473 58.1018 12.8189 58.1018 13.143C58.1018 13.217 58.0825 13.3686 58.0825 13.3686C58.0825 13.3686 58.1651 13.2841 58.1651 13.075C58.1651 12.7292 57.8945 12.4453 57.6627 12.4453L57.6391 12.3425C57.7731 12.3233 58.2586 12.4557 58.2586 13.1343C58.2586 13.2475 58.1937 13.6029 58.0799 13.7553C58.2064 13.7353 58.4499 13.7414 58.2586 14.0916C58.5384 14.1508 58.4693 14.4408 58.38 14.4408C58.2611 14.4408 58.2713 14.3746 58.1558 14.3746C58.0723 14.3746 58.0656 14.4313 58.1111 14.4478C58.1684 14.4678 58.2064 14.5009 58.2064 14.5663C58.2064 14.6891 58.0344 14.6264 57.8844 14.9826C57.935 14.9661 57.9645 14.9574 57.9999 14.9574C58.0344 14.9574 58.1179 14.9696 58.1179 15.0427C58.1179 15.1159 57.9712 15.2248 57.9712 15.5218C57.9712 15.6777 58.1246 15.9539 58.1625 16.0061C58.2072 15.96 58.2519 15.9277 58.3033 15.9277C58.482 15.9277 58.4567 16.0723 58.4567 16.1115C58.4567 16.1516 58.6539 16.5079 59.222 16.6533C59.4993 16.7239 60.1052 16.9007 60.316 17.1115C60.5267 16.9007 61.1318 16.7239 61.4099 16.6533C61.9772 16.5079 62.1744 16.1516 62.1744 16.1115C62.1744 16.0723 62.1499 15.9277 62.3286 15.9277C62.38 15.9277 62.4239 15.96 62.4694 16.0061C62.5073 15.9539 62.6615 15.6777 62.6615 15.5218C62.6615 15.2248 62.5132 15.1159 62.5132 15.0427C62.5132 14.9696 62.5966 14.9574 62.6329 14.9574C62.6674 14.9574 62.6961 14.967 62.7475 14.9826C62.5966 14.6273 62.4247 14.6891 62.4247 14.5663C62.4247 14.5009 62.4635 14.4687 62.5208 14.4478C62.5671 14.4313 62.5587 14.3746 62.4761 14.3746C62.3607 14.3746 62.3699 14.4408 62.2519 14.4408C62.1634 14.4408 62.0926 14.1508 62.3741 14.0916C62.182 13.7423 62.4247 13.7353 62.552 13.7553C62.4365 13.6029 62.3741 13.2475 62.3741 13.1343C62.3741 12.7292 62.5469 12.5184 62.7138 12.4191C62.6868 12.3791 62.659 12.3547 62.6337 12.3312C62.5857 12.2867 62.6253 12.251 62.6674 12.2832C62.6978 12.3059 62.7349 12.3364 62.7703 12.3895C62.7913 12.3791 62.8133 12.3712 62.8326 12.3643C62.8074 12.3224 62.7686 12.2954 62.745 12.2702C62.7045 12.2292 62.7357 12.1927 62.7779 12.2162C62.7998 12.2292 62.8411 12.2545 62.8958 12.3477C62.9363 12.3399 62.97 12.339 62.9928 12.3416L62.9683 12.4444C62.7382 12.4444 62.4668 12.7275 62.4668 13.0742C62.4668 13.2832 62.5486 13.3677 62.5486 13.3677C62.5486 13.3677 62.5301 13.2161 62.5301 13.1421C62.5301 12.8181 62.7517 12.6473 62.863 12.5855C62.9776 12.5219 62.9953 12.5933 62.9152 12.6325C62.7096 12.7336 62.5427 13.0158 62.595 13.2693C62.595 13.2998 62.6278 13.3093 62.6278 13.2153C62.6278 12.6587 63.1597 12.6465 63.2347 12.6683C63.2768 12.5245 63.0526 12.4435 62.97 12.4435L62.9945 12.3407C62.9751 12.2153 62.6489 11.8277 62.107 11.8277C61.699 11.8277 61.3796 12.0306 60.9447 12.0306C60.7787 12.0306 60.4828 11.9514 60.3176 11.846V11.7545C60.4828 11.8599 60.7761 11.9383 60.9413 11.9383C61.3762 11.9383 61.6965 11.7354 62.1053 11.7354C62.7365 11.7354 63.1251 12.2562 63.0998 12.3747Z" fill="#96958D"/>
<path d="M60.3142 13.9479L62.3513 16.0088C62.5156 16.1438 62.6336 15.717 62.6673 15.5968L60.3142 13.2153L57.9601 15.5968L58.2122 15.7553L58.2147 15.6316L58.1439 15.5332L58.2585 15.4966L58.3259 15.3973L58.395 15.4966L58.5451 15.4208L58.5467 15.2972L58.476 15.1987L58.5897 15.1621L58.6588 15.062L58.7263 15.1621L58.8763 15.0864L58.8788 14.9627L58.8072 14.8651L58.921 14.8285L58.9901 14.7275L59.0592 14.8285L59.2092 14.751L59.2109 14.6291L59.1393 14.5306L59.253 14.4932L59.3222 14.393L59.3913 14.4932L59.5413 14.4174L59.5421 14.2946L59.4713 14.1953L59.5851 14.1587L59.6542 14.0594L59.7225 14.1587L59.8734 14.0829L59.8742 13.9601L59.8034 13.8617L59.9163 13.8242L59.9863 13.724L60.0546 13.8242L60.2054 13.7475L60.2063 13.6256L60.1355 13.5263L60.2484 13.4888L60.3184 13.3904L60.3875 13.4888L60.5013 13.5263L60.4296 13.6256L60.4313 13.7475L60.4642 13.8617L60.5788 13.8242L60.6471 13.724L60.7153 13.8242L60.83 13.8617L60.7592 13.9601L60.76 14.0829L60.91 14.1587L60.9791 14.0594L61.0483 14.1587L61.162 14.1953L61.0904 14.2946L61.0921 14.4174L61.243 14.4932L61.3112 14.393L61.3795 14.4932L61.4941 14.5306L61.4242 14.6291L61.425 14.751L61.5742 14.8285L61.6433 14.7275L61.7124 14.8285L61.8262 14.8651L61.7545 14.9627L61.7554 15.0864L61.9062 15.1621L61.9745 15.062L62.0403 15.163L62.1532 15.1996L62.0824 15.298L62.0841 15.4217L62.2341 15.4975L62.3032 15.3982L62.3723 15.4975L62.4853 15.5341L62.4145 15.6325L62.4153 15.7562L62.3032 15.7161L62.1903 15.7562L62.1911 15.6325L62.1203 15.5341L62.2341 15.4975L62.0841 15.4217L61.9703 15.3816L61.8582 15.4217L61.8591 15.298L61.7883 15.1996L61.902 15.163L61.7512 15.0872L61.6391 15.048L61.5261 15.0872L61.527 14.9635L61.4553 14.866L61.57 14.8294L61.4208 14.7519L61.307 14.7135L61.1941 14.7519L61.1949 14.6299L61.1241 14.5315L61.2387 14.494L61.0879 14.4183L60.9766 14.3791L60.8637 14.4183L60.8645 14.2954L60.7937 14.1961L60.9075 14.1596L60.7575 14.0838L60.6445 14.0446L60.5324 14.0838L60.5333 13.961L60.4617 13.8625L60.4288 13.7484L60.3158 13.7092L60.2029 13.7484L60.052 13.8251L60.1667 13.8625L60.095 13.961L60.0967 14.0838L59.9838 14.0446L59.8708 14.0838L59.72 14.1596L59.8346 14.1961L59.7629 14.2954L59.7638 14.4183L59.6525 14.3791L59.5396 14.4183L59.3896 14.494L59.5034 14.5315L59.4317 14.6299L59.4326 14.7519L59.3205 14.7135L59.2075 14.7519L59.0575 14.8294L59.1713 14.866L59.1005 14.9635L59.1013 15.0872L58.9884 15.048L58.8746 15.0872L58.7263 15.163L58.8417 15.1996L58.7701 15.298L58.7709 15.4217L58.6588 15.3816L58.5451 15.4217L58.395 15.4975L58.5097 15.5341L58.438 15.6325L58.4397 15.7562L58.3259 15.7161L58.2122 15.7562L57.9601 15.5977C57.9947 15.7179 58.1127 16.1447 58.2762 16.0097L60.3142 13.9479Z" fill="#96958D"/>
<path d="M58.6573 15.509C58.769 15.509 58.8596 15.4091 58.8596 15.286C58.8596 15.1628 58.769 15.063 58.6573 15.063C58.5456 15.063 58.455 15.1628 58.455 15.286C58.455 15.4091 58.5456 15.509 58.6573 15.509Z" fill="#96958D"/>
<path d="M59.3249 14.8386C59.4362 14.8386 59.5263 14.7387 59.5263 14.6156C59.5263 14.4924 59.4362 14.3926 59.3249 14.3926C59.2137 14.3926 59.1235 14.4924 59.1235 14.6156C59.1235 14.7387 59.2137 14.8386 59.3249 14.8386Z" fill="#96958D"/>
<path d="M59.9923 14.1491C60.104 14.1491 60.1946 14.0493 60.1946 13.9261C60.1946 13.803 60.104 13.7031 59.9923 13.7031C59.8806 13.7031 59.79 13.803 59.79 13.9261C59.79 14.0493 59.8806 14.1491 59.9923 14.1491Z" fill="#96958D"/>
<path d="M60.6405 14.1491C60.7522 14.1491 60.8427 14.0493 60.8427 13.9261C60.8427 13.803 60.7522 13.7031 60.6405 13.7031C60.5287 13.7031 60.4382 13.803 60.4382 13.9261C60.4382 14.0493 60.5287 14.1491 60.6405 14.1491Z" fill="#96958D"/>
<path d="M61.3071 14.819C61.4188 14.819 61.5094 14.7192 61.5094 14.596C61.5094 14.4729 61.4188 14.373 61.3071 14.373C61.1954 14.373 61.1049 14.4729 61.1049 14.596C61.1049 14.7192 61.1954 14.819 61.3071 14.819Z" fill="#96958D"/>
<path d="M61.9561 15.509C62.0678 15.509 62.1584 15.4091 62.1584 15.286C62.1584 15.1628 62.0678 15.063 61.9561 15.063C61.8444 15.063 61.7538 15.1628 61.7538 15.286C61.7538 15.4091 61.8444 15.509 61.9561 15.509Z" fill="#96958D"/>
</g>
<defs>
<clipPath id="clip0_1355_5868">
<rect width="66" height="27" fill="white" transform="translate(0 0.5)"/>
</clipPath>
</defs>
</svg>
