<svg width="172" height="16" viewBox="0 0 172 16" fill="none" xmlns="http://www.w3.org/2000/svg">
<g clip-path="url(#clip0_1557_3879)">
<path fill-rule="evenodd" clip-rule="evenodd" d="M0.702948 0V15.7304H15.4321C19.771 15.7304 23.2885 12.2088 23.2885 7.8648C23.2885 3.5208 19.771 0 15.4329 0H0.702148H0.702948ZM14.5979 1.7272C13.1165 1.93087 11.7588 2.66471 10.776 3.79301C9.79325 4.92131 9.25178 6.36773 9.25178 7.8648C9.25178 9.36187 9.79325 10.8083 10.776 11.9366C11.7588 13.0649 13.1165 13.7987 14.5979 14.0024V1.728V1.7272ZM16.2679 14.0024C17.7494 13.7987 19.107 13.0649 20.0898 11.9366C21.0726 10.8083 21.6141 9.36187 21.6141 7.8648C21.6141 6.36773 21.0726 4.92131 20.0898 3.79301C19.107 2.66471 17.7494 1.93087 16.2679 1.7272V14.0032V14.0024ZM10.5906 14.0584C9.6509 13.3234 8.89101 12.3835 8.36872 11.3103C7.84643 10.237 7.57549 9.05866 7.57651 7.8648C7.57549 6.67094 7.84643 5.49257 8.36872 4.41932C8.89101 3.34607 9.6509 2.4062 10.5906 1.6712H2.3722V14.0584H10.5906Z" fill="#FFFEF1" fill-opacity="0.25"/>
<path d="M36.4276 15.8648V8.764H43.5433V15.8648H45.4962V0.136H43.5433V6.9672H36.4284V0.1344H34.4755V15.8648H36.4284H36.4276ZM59.8466 0.1352H51.0041V1.752H54.4609V14.2464H51.0041V15.864H59.8482V14.248H56.4138V1.7528H59.8482V0.1352H59.8466ZM70.3823 16C72.5597 16 73.9293 15.1008 74.6469 13.7304L74.7819 15.8648H76.4656V7.348H70.6963V9.1464H74.5574V9.6856C74.5574 12.472 73.0088 14.2024 70.4046 14.2024C67.4193 14.2024 65.8484 11.9328 65.8484 8C65.8484 4.0672 67.3522 1.7976 70.3599 1.7976C72.515 1.7976 73.839 2.8992 74.3105 5.2584H76.3976C75.7919 1.708 73.6145 0 70.4046 0C66.1624 0 63.8507 3.0336 63.8507 8C63.8507 12.8992 66.2974 16 70.3823 16ZM84.0415 15.8648V8.764H91.1572V15.8648H93.1101V0.136H91.1572V6.9672H84.0415V0.1344H82.0886V15.8648H84.0415ZM107.954 15.8648V14.0672H100.907V0.136H98.9537V15.864H107.954V15.8648ZM121.169 0.1352H112.326V1.752H115.782V14.2464H112.326V15.864H121.169V14.248H117.735V1.7528H121.169V0.1352ZM131.705 16C133.882 16 135.251 15.1008 135.97 13.7304L136.104 15.8648H137.787V7.348H132.019V9.1464H135.879V9.6856C135.879 12.472 134.331 14.2024 131.727 14.2024C128.742 14.2024 127.171 11.9328 127.171 8C127.171 4.0672 128.675 1.7976 131.683 1.7976C133.837 1.7976 135.162 2.8992 135.632 5.2584H137.72C137.114 1.708 134.937 0 131.727 0C127.485 0 125.173 3.0336 125.173 8C125.173 12.8992 127.619 16 131.705 16ZM145.364 15.8648V8.764H152.479V15.8648H154.432V0.136H152.479V6.9672H145.364V0.1344H143.411V15.8648H145.364ZM166.201 15.8648V1.9328H171.297V0.1352H159.154V1.9328H164.249V15.864H166.201V15.8648Z" fill="#FFFEF1" fill-opacity="0.25"/>
</g>
<defs>
<clipPath id="clip0_1557_3879">
<rect width="171" height="16" fill="white" transform="translate(0.5)"/>
</clipPath>
</defs>
</svg>
