<svg width="271" height="174" viewBox="0 0 271 174" fill="none" xmlns="http://www.w3.org/2000/svg">
<g clip-path="url(#clip0_2203_4211)">
<mask id="mask0_2203_4211" style="mask-type:alpha" maskUnits="userSpaceOnUse" x="0" y="2" width="270" height="288">
<rect y="2" width="270" height="288" rx="18" fill="#FFFEF1"/>
</mask>
<g mask="url(#mask0_2203_4211)">
<mask id="mask1_2203_4211" style="mask-type:alpha" maskUnits="userSpaceOnUse" x="18" y="2" width="238" height="238">
<circle cx="137" cy="121" r="119" fill="url(#paint0_radial_2203_4211)"/>
</mask>
<g mask="url(#mask1_2203_4211)">
<path d="M159 118H232L254 93H276" stroke="#36393A"/>
<path d="M275.5 147.5H245L224.5 125H156" stroke="#36393A"/>
<path d="M103.5 88.5H37L17.5 59.5H-6" stroke="#36393A"/>
<path d="M105 102H15.5L-7 123.5" stroke="#36393A"/>
<path d="M190 118L194 125" stroke="#36393A"/>
<path d="M157 76H203.5L243 42H275" stroke="#36393A"/>
<path d="M103 108H30.5V135.5L-4 174" stroke="#36393A"/>
<path d="M116.5 73.5H102L74 30H-3.5" stroke="#36393A"/>
</g>
<mask id="mask2_2203_4211" style="mask-type:alpha" maskUnits="userSpaceOnUse" x="24" y="62" width="74" height="74">
<circle cx="61" cy="99" r="37" fill="url(#paint1_linear_2203_4211)"/>
<circle cx="61" cy="99" r="36.5" stroke="url(#paint2_linear_2203_4211)" stroke-opacity="0.1"/>
</mask>
<g mask="url(#mask2_2203_4211)">
<circle cx="61" cy="99" r="37" fill="#FFFEF1" fill-opacity="0.05"/>
<path d="M75.453 91.6305C75.995 91.9918 76.4166 92.594 76.4166 93.2564C76.4166 94.2802 75.5735 95.1233 74.4895 95.1233H47.4501C46.3661 95.1233 45.5833 94.2802 45.5833 93.2564C45.5833 92.594 45.9446 91.9918 46.4866 91.6305L60.5181 83.7415C60.8193 83.5608 61.1204 83.5608 61.4215 83.7415L75.453 91.6305ZM74.3088 93.1962L60.9999 85.6685L47.6308 93.1962H57.9286C57.6877 92.7747 57.6275 92.2929 57.6275 91.7509C57.6275 89.9443 59.1331 88.3785 60.9999 88.3785C62.8066 88.3785 64.3723 89.9443 64.3723 91.7509C64.3723 92.2929 64.2519 92.7747 64.011 93.1962H74.3088ZM60.9999 93.1962C61.7828 93.1962 62.4452 92.594 62.4452 91.7509C62.4452 90.968 61.7828 90.3056 60.9999 90.3056C60.1568 90.3056 59.5546 90.968 59.5546 91.7509C59.5546 92.594 60.1568 93.1962 60.9999 93.1962ZM49.4374 97.0504H51.3645V104.759H56.1822V97.0504H58.1093V104.759H63.8905V97.0504H65.8176V104.759H70.6353V97.0504H72.5624V104.759C73.0442 104.759 73.526 105.24 73.526 105.722C73.526 106.264 73.0442 106.686 72.5624 106.686H49.4374C48.8954 106.686 48.4739 106.264 48.4739 105.722C48.4739 105.24 48.8954 104.759 49.4374 104.759V97.0504ZM74.0077 108.613C74.4895 108.613 74.9713 109.095 74.9713 109.576C74.9713 110.118 74.4895 110.54 74.0077 110.54H47.9921C47.4501 110.54 47.0286 110.118 47.0286 109.576C47.0286 109.095 47.4501 108.613 47.9921 108.613H74.0077ZM75.453 112.467C75.9348 112.467 76.4166 112.949 76.4166 113.431C76.4166 113.973 75.9348 114.394 75.453 114.394H46.5468C46.0048 114.394 45.5833 113.973 45.5833 113.431C45.5833 112.949 46.0048 112.467 46.5468 112.467H75.453Z" fill="#FFFEF1" fill-opacity="0.8"/>
</g>
<mask id="mask3_2203_4211" style="mask-type:alpha" maskUnits="userSpaceOnUse" x="172" y="62" width="74" height="74">
<circle cx="209" cy="99" r="37" fill="url(#paint3_linear_2203_4211)"/>
<circle cx="209" cy="99" r="36.5" stroke="url(#paint4_linear_2203_4211)" stroke-opacity="0.1"/>
</mask>
<g mask="url(#mask3_2203_4211)">
<circle cx="209" cy="99" r="37" transform="rotate(90 209 99)" fill="#FFFEF1" fill-opacity="0.05"/>
<path d="M208.074 87.9001C207.729 91.1802 206.589 94.253 204.932 95.9794C202.653 98.3272 199.719 99.0868 195.852 98.9832C195.852 95.9448 197.785 92.9065 199.788 91.1111C201.79 89.3157 204.69 88.0037 208.074 87.9001Z" fill="#FFFEF1" fill-opacity="0.8"/>
<path d="M194.678 99.0176C194.747 97.0151 195.265 95.3578 196.093 93.9077C196.991 92.354 198.51 90.4205 200.823 89.074C200.823 89.074 198.027 89.7645 194.988 91.9052C192.572 93.6315 190.5 96.4627 190.5 99.0867L194.678 99.0176Z" fill="#FFFEF1" fill-opacity="0.8"/>
<path d="M209.213 87.9001C209.559 91.1802 210.698 94.253 212.355 95.9794C214.634 98.3272 217.569 99.0868 221.436 98.9832C221.436 95.9448 219.502 92.9065 217.5 91.1111C215.497 89.3157 212.597 88.0037 209.213 87.9001Z" fill="#FFFEF1" fill-opacity="0.8"/>
<path d="M222.575 99.0178C222.506 97.0152 221.988 95.3579 221.159 93.9078C220.262 92.3541 218.742 90.4206 216.429 89.0741C216.429 89.0741 219.226 89.7646 222.264 91.9053C224.681 93.6316 226.787 96.4628 226.787 99.0523L222.575 99.0178Z" fill="#FFFEF1" fill-opacity="0.8"/>
<path d="M209.214 111.068C209.559 107.788 210.698 104.715 212.356 102.988C214.634 100.641 217.569 99.8811 221.436 99.9846C221.436 103.023 219.503 106.061 217.5 107.857C215.497 109.652 212.597 110.93 209.214 111.068Z" fill="#FFFEF1" fill-opacity="0.8"/>
<path d="M222.575 99.9499C222.506 101.952 221.988 103.61 221.159 105.06C220.262 106.614 218.742 108.547 216.429 109.894C216.429 109.894 219.226 109.203 222.264 107.062C224.681 105.336 226.787 102.505 226.787 99.9154L222.575 99.9499Z" fill="#FFFEF1" fill-opacity="0.8"/>
<path d="M208.074 111.068C207.729 107.788 206.59 104.715 204.932 102.988C202.654 100.641 199.719 99.8811 195.852 99.9846C195.852 103.023 197.785 106.061 199.788 107.857C201.79 109.652 204.691 110.93 208.074 111.068Z" fill="#FFFEF1" fill-opacity="0.8"/>
<path d="M194.678 99.9499C194.747 101.952 195.265 103.61 196.093 105.06C196.991 106.614 198.51 108.547 200.823 109.894C200.823 109.894 198.027 109.203 194.988 107.062C192.572 105.336 190.5 102.505 190.5 99.8809L194.678 99.9499Z" fill="#FFFEF1" fill-opacity="0.8"/>
</g>
<circle cx="135" cy="99" r="47" fill="#FABE65" fill-opacity="0.05"/>
<circle cx="135" cy="99" r="38" fill="#FABE65" fill-opacity="0.05"/>
</g>
</g>
<defs>
<radialGradient id="paint0_radial_2203_4211" cx="0" cy="0" r="1" gradientUnits="userSpaceOnUse" gradientTransform="translate(137 121) rotate(90) scale(205.5)">
<stop stop-color="#232C2F"/>
<stop offset="1" stop-color="#23282F" stop-opacity="0"/>
</radialGradient>
<linearGradient id="paint1_linear_2203_4211" x1="-7" y1="89" x2="80" y2="96.5" gradientUnits="userSpaceOnUse">
<stop stop-color="#FFFEF1"/>
<stop offset="1" stop-color="#FFFEF1" stop-opacity="0"/>
</linearGradient>
<linearGradient id="paint2_linear_2203_4211" x1="49" y1="62" x2="96" y2="133.5" gradientUnits="userSpaceOnUse">
<stop stop-color="#FFFEF1"/>
<stop offset="1" stop-color="#FFFEF1" stop-opacity="0"/>
</linearGradient>
<linearGradient id="paint3_linear_2203_4211" x1="264" y1="73.5" x2="184.5" y2="91.5" gradientUnits="userSpaceOnUse">
<stop stop-color="#FFFEF1"/>
<stop offset="1" stop-color="#FFFEF1" stop-opacity="0"/>
</linearGradient>
<linearGradient id="paint4_linear_2203_4211" x1="197" y1="62" x2="244" y2="133.5" gradientUnits="userSpaceOnUse">
<stop stop-color="#FFFEF1"/>
<stop offset="1" stop-color="#FFFEF1" stop-opacity="0"/>
</linearGradient>
<clipPath id="clip0_2203_4211">
<rect width="271" height="174" rx="20" fill="white"/>
</clipPath>
</defs>
</svg>
