<svg width="41" height="26" viewBox="0 0 41 26" fill="none" xmlns="http://www.w3.org/2000/svg">
<path d="M19.838 0.981171C19.4658 4.52031 18.2377 7.83592 16.4512 9.69862C13.9949 12.2319 10.8315 13.0515 6.66318 12.9397C6.66318 9.66137 8.74733 6.38301 10.9059 4.4458C13.0645 2.50859 16.1907 1.09293 19.838 0.981171Z" fill="url(#paint0_radial_1674_4949)"/>
<path d="M5.39779 12.9773C5.47222 10.8165 6.03048 9.02834 6.92368 7.46367C7.89133 5.78724 9.52887 3.70101 12.0224 2.2481C12.0224 2.2481 9.00784 2.99318 5.73274 5.30294C3.12755 7.16564 0.894531 10.2205 0.894531 13.0518L5.39779 12.9773Z" fill="url(#paint1_radial_1674_4949)"/>
<path d="M21.0662 0.981171C21.4384 4.52031 22.6665 7.83592 24.4529 9.69862C26.9093 12.2319 30.0727 13.0515 34.241 12.9397C34.241 9.66137 32.1568 6.38301 29.9983 4.4458C27.8397 2.50859 24.7134 1.09293 21.0662 0.981171Z" fill="url(#paint2_radial_1674_4949)"/>
<path d="M35.4689 12.9773C35.3945 10.8165 34.8362 9.02833 33.943 7.46366C32.9754 5.78723 31.3378 3.701 28.8443 2.24809C28.8443 2.24809 31.8589 2.99317 35.134 5.30293C37.7391 7.16563 40.0094 10.2205 40.0094 13.0145L35.4689 12.9773Z" fill="url(#paint3_radial_1674_4949)"/>
<path d="M21.0661 25.9788C21.4383 22.4397 22.6665 19.1241 24.4529 17.2614C26.9092 14.7281 30.0727 13.9085 34.241 14.0203C34.241 17.2986 32.1568 20.577 29.9982 22.5142C27.8396 24.4514 24.7134 25.8298 21.0661 25.9788Z" fill="url(#paint4_radial_1674_4949)"/>
<path d="M35.4689 13.9828C35.3945 16.1435 34.8362 17.9317 33.943 19.4964C32.9754 21.1728 31.3378 23.2591 28.8443 24.712C28.8443 24.712 31.8589 23.9669 35.134 21.6571C37.7391 19.7944 40.0094 16.7396 40.0094 13.9456L35.4689 13.9828Z" fill="url(#paint5_radial_1674_4949)"/>
<path d="M19.838 25.9786C19.4658 22.4395 18.2377 19.1239 16.4513 17.2612C13.9949 14.7279 10.8315 13.9083 6.66318 14.0201C6.66318 17.2984 8.74734 20.5768 10.9059 22.514C13.0645 24.4512 16.1907 25.8296 19.838 25.9786Z" fill="url(#paint6_radial_1674_4949)"/>
<path d="M5.39779 13.983C5.47222 16.1438 6.03048 17.932 6.92368 19.4966C7.89133 21.1731 9.52887 23.2593 12.0224 24.7122C12.0224 24.7122 9.00784 23.9671 5.73274 21.6574C3.12755 19.7947 0.894531 16.7398 0.894531 13.9085L5.39779 13.983Z" fill="url(#paint7_radial_1674_4949)"/>
<defs>
<radialGradient id="paint0_radial_1674_4949" cx="0" cy="0" r="1" gradientUnits="userSpaceOnUse" gradientTransform="translate(36.225 25.6506) rotate(-153.565) scale(80.5539 126.402)">
<stop stop-color="#FFFEF1"/>
<stop offset="1" stop-color="#FFFEF1" stop-opacity="0"/>
</radialGradient>
<radialGradient id="paint1_radial_1674_4949" cx="0" cy="0" r="1" gradientUnits="userSpaceOnUse" gradientTransform="translate(36.225 25.6506) rotate(-153.565) scale(80.5539 126.402)">
<stop stop-color="#FFFEF1"/>
<stop offset="1" stop-color="#FFFEF1" stop-opacity="0"/>
</radialGradient>
<radialGradient id="paint2_radial_1674_4949" cx="0" cy="0" r="1" gradientUnits="userSpaceOnUse" gradientTransform="translate(36.225 25.6506) rotate(-153.565) scale(80.5539 126.402)">
<stop stop-color="#FFFEF1"/>
<stop offset="1" stop-color="#FFFEF1" stop-opacity="0"/>
</radialGradient>
<radialGradient id="paint3_radial_1674_4949" cx="0" cy="0" r="1" gradientUnits="userSpaceOnUse" gradientTransform="translate(36.225 25.6506) rotate(-153.565) scale(80.5539 126.402)">
<stop stop-color="#FFFEF1"/>
<stop offset="1" stop-color="#FFFEF1" stop-opacity="0"/>
</radialGradient>
<radialGradient id="paint4_radial_1674_4949" cx="0" cy="0" r="1" gradientUnits="userSpaceOnUse" gradientTransform="translate(36.225 25.6506) rotate(-153.565) scale(80.5539 126.402)">
<stop stop-color="#FFFEF1"/>
<stop offset="1" stop-color="#FFFEF1" stop-opacity="0"/>
</radialGradient>
<radialGradient id="paint5_radial_1674_4949" cx="0" cy="0" r="1" gradientUnits="userSpaceOnUse" gradientTransform="translate(36.225 25.6506) rotate(-153.565) scale(80.5539 126.402)">
<stop stop-color="#FFFEF1"/>
<stop offset="1" stop-color="#FFFEF1" stop-opacity="0"/>
</radialGradient>
<radialGradient id="paint6_radial_1674_4949" cx="0" cy="0" r="1" gradientUnits="userSpaceOnUse" gradientTransform="translate(36.225 25.6506) rotate(-153.565) scale(80.5539 126.402)">
<stop stop-color="#FFFEF1"/>
<stop offset="1" stop-color="#FFFEF1" stop-opacity="0"/>
</radialGradient>
<radialGradient id="paint7_radial_1674_4949" cx="0" cy="0" r="1" gradientUnits="userSpaceOnUse" gradientTransform="translate(36.225 25.6506) rotate(-153.565) scale(80.5539 126.402)">
<stop stop-color="#FFFEF1"/>
<stop offset="1" stop-color="#FFFEF1" stop-opacity="0"/>
</radialGradient>
</defs>
</svg>
