<svg width="137" height="30" viewBox="0 0 137 30" fill="none" xmlns="http://www.w3.org/2000/svg">
<g clip-path="url(#clip0_3341_5438)">
<path d="M89.3596 10.66C93.0954 10.66 95.038 13.385 95.038 17.01C95.038 17.385 95.0131 17.785 94.9882 18.185H86.5702C86.5964 18.9283 86.9006 19.6343 87.4221 20.1625C87.9437 20.6906 88.6443 21.0022 89.3845 21.035H89.5837C90.0737 21.0655 90.5592 20.9254 90.9584 20.6386C91.3576 20.3517 91.6461 19.9355 91.7754 19.46H94.9882C94.3904 21.91 92.4727 23.66 89.3596 23.66C86.2464 23.66 83.4321 21.285 83.4321 17.16C83.4321 13.41 85.6238 10.66 89.3596 10.66ZM131.449 10.66C134.687 10.66 136.555 12.285 136.555 14.91H133.317C133.315 14.6701 133.264 14.4332 133.168 14.2136C133.072 13.994 132.932 13.7964 132.757 13.6327C132.583 13.469 132.377 13.3427 132.152 13.2614C131.927 13.1802 131.688 13.1457 131.449 13.16H131.25C130.378 13.16 129.631 13.51 129.631 14.385C129.631 15.06 130.254 15.41 131.275 15.66L132.944 16.085C135.335 16.685 136.43 17.835 136.43 19.81C136.43 21.935 134.712 23.66 131.35 23.66C127.988 23.66 125.945 22.035 125.945 19.285H129.258C129.258 19.5506 129.315 19.813 129.423 20.0553C129.532 20.2975 129.69 20.5141 129.887 20.6909C130.084 20.8678 130.317 21.001 130.569 21.0818C130.821 21.1626 131.087 21.1893 131.35 21.16H131.549C132.545 21.16 133.243 20.685 133.243 19.935C133.243 19.285 132.819 18.91 131.923 18.685L130.304 18.285C127.689 17.635 126.443 16.535 126.443 14.51C126.443 12.26 128.336 10.66 131.449 10.66ZM55.9118 5.91004L62.6363 23.41H59.0748L57.5058 19.285H50.1836L48.6146 23.41H45.0781L51.9768 5.91004H55.9118ZM71.9259 10.785V13.785H70.8052C68.6882 13.785 67.692 14.785 67.692 16.91V23.41H64.4543V10.91H67.692V13.41C67.9009 12.6221 68.3743 11.9306 69.0322 11.4524C69.6901 10.9741 70.4923 10.7384 71.3033 10.785H71.9259ZM112.596 10.66C115.834 10.66 117.029 12.785 117.029 15.535V23.41H113.792V15.91C113.792 14.285 113.219 13.41 111.874 13.41H111.675C111.298 13.429 110.929 13.5237 110.59 13.6884C110.251 13.8531 109.948 14.0846 109.699 14.369C109.451 14.6535 109.262 14.9851 109.143 15.3443C109.025 15.7035 108.979 16.0829 109.01 16.46V23.41H105.772V15.91C105.772 14.285 105.174 13.41 103.83 13.41H103.63C103.254 13.429 102.885 13.5237 102.546 13.6884C102.206 13.8531 101.903 14.0846 101.655 14.369C101.406 14.6535 101.217 14.9851 101.099 15.3443C100.98 15.7035 100.935 16.0829 100.965 16.46V23.41H97.7277V10.91H100.965V12.685C101.354 12.052 101.901 11.532 102.552 11.1768C103.203 10.8215 103.936 10.6434 104.676 10.66C105.451 10.6039 106.226 10.7778 106.904 11.16C107.581 11.5423 108.132 12.1161 108.487 12.81C108.927 12.1246 109.537 11.5659 110.258 11.1889C110.978 10.812 111.784 10.6297 112.596 10.66ZM123.48 10.91V23.41H120.242V10.91H123.48ZM78.6744 6.86004V10.91H81.4638V13.535H78.6744V19.285C78.6744 20.41 78.9235 20.66 80.0442 20.66H81.8374V23.41H78.6744C76.5575 23.41 75.4367 22.285 75.4367 20.16V13.535H72.8715V10.91H75.4367V6.86004H78.6744ZM53.8439 9.66004L51.3285 16.285H56.3593L53.8439 9.66004ZM89.3338 13.285H89.1346C88.8085 13.2708 88.4828 13.3218 88.1766 13.4352C87.8704 13.5485 87.5897 13.722 87.3509 13.9454C87.1121 14.1688 86.92 14.4376 86.7859 14.7363C86.6517 15.035 86.5781 15.3575 86.5694 15.685H91.8991C91.8904 15.3575 91.8168 15.035 91.6826 14.7363C91.5484 14.4376 91.3563 14.1688 91.1175 13.9454C90.8788 13.722 90.5981 13.5485 90.2918 13.4352C89.9856 13.3218 89.6599 13.2708 89.3338 13.285ZM123.603 5.91004V9.28504H120.117V5.91004H123.603ZM17.3942 0.992537C17.5898 0.688093 17.8584 0.43774 18.1753 0.264379C18.4921 0.0910182 18.8473 0.000183105 19.2082 0.000183105C19.5691 0.000183105 19.9242 0.0910182 20.2411 0.264379C20.558 0.43774 20.8265 0.688093 21.0221 0.992537L37.5127 26.64C37.723 26.9671 37.8417 27.3451 37.8561 27.7342C37.8706 28.1232 37.7804 28.509 37.5949 28.851C37.4095 29.1929 37.1357 29.4784 36.8023 29.6774C36.4689 29.8764 36.0883 29.9815 35.7004 29.9817L2.71842 30C2.33027 30.0004 1.94921 29.8957 1.61536 29.697C1.2815 29.4983 1.00721 29.2128 0.821364 28.8708C0.635519 28.5287 0.544998 28.1427 0.559334 27.7533C0.573671 27.364 0.692333 26.9857 0.902826 26.6584L17.3942 0.992537ZM18.3523 5.1017L6.90167 22.8984C6.75494 23.1253 6.67208 23.3878 6.66185 23.6581C6.65162 23.9284 6.7144 24.1965 6.84356 24.4339C6.97271 24.6714 7.16342 24.8693 7.3955 25.0068C7.62758 25.1443 7.89238 25.2163 8.16187 25.215L31.0631 25.2025C31.3325 25.2036 31.5973 25.1314 31.8292 24.9937C32.0612 24.8561 32.2518 24.658 32.3808 24.4205C32.5097 24.183 32.5723 23.9149 32.5619 23.6446C32.5515 23.3743 32.4685 23.1118 32.3216 22.885L20.871 5.10087C20.7349 4.88989 20.5483 4.71647 20.3283 4.59643C20.1083 4.47639 19.8618 4.41355 19.6114 4.41363C19.361 4.41372 19.1146 4.47672 18.8947 4.59691C18.6747 4.71709 18.4883 4.89063 18.3523 5.1017Z" fill="#FFFEF1" fill-opacity="0.25"/>
</g>
<defs>
<clipPath id="clip0_3341_5438">
<rect width="136" height="30" fill="white" transform="translate(0.554688)"/>
</clipPath>
</defs>
</svg>
