<svg width="138" height="30" viewBox="0 0 138 30" fill="none" xmlns="http://www.w3.org/2000/svg">
<path d="M67.3563 9.35455C65.2436 9.35455 63.4922 10.5 62.5469 12.2728C61.7686 10.5 59.8781 9.32727 57.654 9.32727C55.9026 9.32727 54.4293 10.2545 53.5396 11.7818V9.87272H50.5928V23.7272H53.623V15.6C53.623 13.4182 54.9574 11.9727 56.959 11.9727C58.9051 11.9727 60.1561 13.4182 60.1561 15.6V23.7272H63.1864V15.6C63.1864 13.5 64.6041 11.9727 66.578 11.9727C68.4962 12 69.8584 13.5 69.8584 15.6V23.7272H72.8608V15.3546C72.8608 11.8636 70.5534 9.35455 67.3563 9.35455Z" fill="#FFFEF1" fill-opacity="0.25"/>
<path d="M79.0482 15.5182C79.4373 13.3091 81.1054 11.8091 83.385 11.8091C85.7202 11.8091 87.4995 13.3363 87.8331 15.5182H79.0482ZM87.6107 19.1728C87.0824 20.7 85.331 21.7909 83.4406 21.7909C81.1332 21.7909 79.3818 20.1546 79.0203 17.7L90.9189 17.7272C90.9466 17.4 90.9745 16.9909 90.9745 16.6637C90.9745 12.3818 87.8608 9.32727 83.4684 9.32727C79.076 9.32727 75.9067 12.3818 75.9067 16.6363C75.9067 21.0818 79.076 24.2728 83.4962 24.2728C86.7211 24.2728 89.6401 22.3091 90.4462 19.5818L87.6107 19.1728Z" fill="#FFFEF1" fill-opacity="0.25"/>
<path d="M101.086 9.38184C99.4454 9.38184 98.111 10.3637 97.2491 11.9727V9.87274H94.3022V23.7273H97.3325V16.1454C97.3325 13.6909 98.6669 11.9455 100.669 11.9455C101.225 11.9455 102.086 12.0546 102.865 12.3819V9.73639C102.253 9.5182 101.614 9.38184 101.086 9.38184Z" fill="#FFFEF1" fill-opacity="0.25"/>
<path d="M108.653 3.59998H105.65V23.7272H108.653V3.59998Z" fill="#FFFEF1" fill-opacity="0.25"/>
<path d="M116.046 9.87273H113.044V23.7272H116.046V9.87273ZM112.655 5.8091C112.655 6.87273 113.433 7.63638 114.545 7.63638C115.629 7.63638 116.408 6.87273 116.408 5.8091C116.408 4.77273 115.629 4.03638 114.545 4.03638C113.433 4.03638 112.655 4.77273 112.655 5.8091Z" fill="#FFFEF1" fill-opacity="0.25"/>
<path d="M127.314 11.9727C129.427 11.9727 130.678 13.4454 130.678 15.4909V23.7272H133.68V15.2728C133.68 11.8364 131.456 9.32727 128.009 9.32727C126.146 9.32727 124.367 10.3091 123.45 11.8909V9.87272H120.419V23.7272H123.45V15.7637C123.45 13.5546 125.202 11.9727 127.314 11.9727Z" fill="#FFFEF1" fill-opacity="0.25"/>
<path fill-rule="evenodd" clip-rule="evenodd" d="M13.801 24.4914C12.9822 25.3048 11.9083 25.8 10.6147 25.8C8.42926 25.8 7.02053 24.2759 6.18625 22.8511C5.32775 21.3851 4.76857 19.5365 4.39248 17.8363C4.01021 16.1082 3.78859 14.3974 3.66215 13.1298C3.59863 12.4931 3.55846 11.9613 3.53407 11.5862C3.52186 11.3986 3.51358 11.2498 3.50828 11.1464C3.50564 11.0946 3.50373 11.0542 3.50246 11.0259L3.50101 10.9926L3.50061 10.9829L3.50049 10.9798C3.50048 10.9794 3.50041 10.978 5.33389 10.9091C7.16737 10.8402 7.16737 10.84 7.16735 10.8398L7.16755 10.8446L7.16855 10.8674C7.16951 10.8887 7.17105 10.9217 7.17331 10.9659C7.17783 11.0542 7.18518 11.1867 7.19626 11.357C7.21844 11.6979 7.25544 12.1888 7.31435 12.7793C7.43276 13.9663 7.63697 15.5283 7.97865 17.0728C8.32651 18.6454 8.78941 20.0695 9.36822 21.058C9.97127 22.0878 10.4151 22.2 10.6147 22.2C10.8678 22.2 11.0179 22.1328 11.1901 21.9617C11.4168 21.7366 11.6834 21.3125 11.9496 20.5817C12.4071 19.326 12.6892 17.7019 13.0167 15.8171C13.0803 15.451 13.1456 15.0749 13.2144 14.6899C13.6103 12.4689 14.1202 9.94673 15.1795 7.97365C15.7237 6.96026 16.4565 6.00349 17.4759 5.30071C18.518 4.58237 19.7582 4.20001 21.1764 4.20001C24.1588 4.20001 26.0655 5.85941 27.2547 7.92842C28.3821 9.88991 28.9861 12.4027 29.4667 14.6266C29.5498 15.0109 29.6293 15.3865 29.7067 15.7524C30.1054 17.6369 30.4501 19.2663 30.9571 20.527C31.5736 22.0599 32.0765 22.2 32.4196 22.2C32.4217 22.2 32.424 22.1999 32.4285 22.1989C32.4334 22.198 32.4446 22.1953 32.4634 22.1878C32.5019 22.1723 32.5752 22.1349 32.6805 22.0495C32.903 21.8692 33.1844 21.5447 33.4982 21.0303C34.1272 19.9991 34.6901 18.5352 35.162 16.95C35.627 15.3882 35.9736 13.8127 36.2047 12.6187C36.3198 12.0241 36.4052 11.5297 36.4616 11.186C36.4897 11.0142 36.5105 10.8803 36.5241 10.7908L36.5391 10.6905L36.5425 10.6668L36.5433 10.6618C36.5433 10.662 36.5433 10.6616 38.3607 10.9091C40.1781 11.1566 40.1781 11.157 40.1779 11.1573L40.1761 11.1704L40.1713 11.2028C40.1673 11.2306 40.1614 11.2704 40.1536 11.3215C40.1382 11.4237 40.1152 11.5711 40.0846 11.7572C40.0237 12.1294 39.9324 12.6576 39.8099 13.2904C39.5658 14.551 39.1939 16.2481 38.6845 17.9591C38.1823 19.6467 37.5154 21.4554 36.6471 22.8789C35.8563 24.1752 34.4996 25.8 32.4196 25.8C29.6691 25.8 28.2844 23.6902 27.5436 21.8481C26.9092 20.2708 26.4876 18.2669 26.094 16.396C26.0211 16.0494 25.9491 15.7073 25.877 15.3735C25.385 13.0973 24.8706 11.1101 24.0582 9.6966C23.3075 8.39062 22.4529 7.80001 21.1764 7.80001C20.4653 7.80001 19.9718 7.98016 19.5859 8.24618C19.1774 8.52778 18.7882 8.97726 18.4264 9.65137C17.6736 11.0533 17.2354 13.0312 16.8291 15.3101C16.7696 15.6433 16.7108 15.9849 16.651 16.3312C16.3283 18.2017 15.9817 20.2109 15.4052 21.7933C15.0567 22.7501 14.5653 23.7323 13.801 24.4914Z" fill="#FFFEF1" fill-opacity="0.25"/>
</svg>
