<svg width="32" height="28" viewBox="0 0 32 28" fill="none" xmlns="http://www.w3.org/2000/svg">
<path fill-rule="evenodd" clip-rule="evenodd" d="M19.2555 15.0515C19.0736 15.0644 18.1342 15.1177 16.0386 15.1177C14.3719 15.1177 13.1885 15.0702 12.7733 15.0515C6.33212 14.7823 1.52431 13.7172 1.52431 12.4419C1.52431 11.1666 6.33212 10.1029 12.7733 9.82943V13.9906C13.1946 14.0194 14.4007 14.0871 16.0674 14.0871C18.0675 14.0871 19.0691 14.0079 19.2494 13.9921V9.83231C25.677 10.1044 30.4742 11.1695 30.4742 12.4419C30.4742 13.7143 25.6785 14.7794 19.2494 15.05L19.2555 15.0515ZM19.2555 9.40194V5.6783H28.2256V0H3.80321V5.6783H12.7718V9.4005C5.48208 9.7186 0 11.0903 0 12.7341C0 14.3778 5.48208 15.7481 12.7718 16.0676V28H19.2539V16.0633C26.527 15.7452 32 14.375 32 12.7326C32 11.0903 26.5316 9.72004 19.2539 9.4005L19.2555 9.40194Z" fill="white"/>
</svg>
