<svg width="27" height="34" viewBox="0 0 27 34" fill="none" xmlns="http://www.w3.org/2000/svg">
<path fill-rule="evenodd" clip-rule="evenodd" d="M20.7221 6.89416C24.6305 8.17575 27.4918 10.0965 26.9293 13.6689C26.5226 16.2851 24.9996 17.5513 22.9754 17.9945C25.7545 19.3699 27.1673 21.4816 25.8201 25.1391C24.1494 29.683 20.1788 30.0664 14.8979 29.1154L13.6164 34L10.5207 33.2672L11.7856 28.4473C10.9834 28.2564 10.1629 28.0554 9.31701 27.8388L8.04862 32.6791L4.95461 31.9463L6.23613 27.0513C5.797 26.9448 5.3535 26.8339 4.90562 26.723C4.61608 26.6512 4.32479 26.5797 4.03087 26.5094L0 25.5534L1.53694 22.1821C1.53694 22.1821 3.81918 22.7582 3.78681 22.7156C4.66507 22.9217 5.05346 22.3781 5.20741 22.0167L7.2316 14.2926L7.55963 14.3694C7.43454 14.3234 7.32345 14.2926 7.23685 14.2723L8.68106 8.75871C8.71868 8.13144 8.49299 7.3423 7.23947 7.04417C7.28758 7.01338 4.98873 6.51239 4.98873 6.51239L5.81274 3.36605L10.0842 4.38008L10.0807 4.39548C10.7219 4.54881 11.3849 4.69216 12.0585 4.83863L13.3269 0L16.4226 0.734626L15.177 5.47776C16.0106 5.65834 16.8451 5.83914 17.6587 6.03346L18.8947 1.32091L21.9905 2.05366L20.7221 6.89416ZM10.9274 24.4415C13.4546 25.0767 18.9769 26.464 19.8526 23.1075C20.7536 19.6776 15.4027 18.534 12.788 17.9753C12.495 17.9127 12.2361 17.8574 12.0244 17.807L10.3221 24.2922C10.4953 24.3331 10.6991 24.3843 10.9274 24.4415ZM13.3129 14.9649C15.4184 15.4997 20.0118 16.6667 20.8113 13.6161C21.6301 10.4961 17.1644 9.55638 14.9837 9.09742C14.7379 9.04561 14.5209 9.00005 14.3442 8.95802L12.8038 14.8381C12.9499 14.8727 13.1213 14.9162 13.3129 14.9649Z" fill="white"/>
</svg>
