<svg width="15" height="16" viewBox="0 0 15 16" fill="none" xmlns="http://www.w3.org/2000/svg">
<path d="M0 5.09375L7.5 0.875L15 5.09375V6.5H0V5.09375ZM0 15.875V14.4688L1.875 13.0625V7.4375H3.75V13.0625H4.92188V7.4375H6.79688V13.0625H8.20312V7.4375H10.0781V13.0625H11.25V7.4375H13.125V13.0625L15 14.4688V15.875H0ZM7.5 5.09375C7.99805 5.09375 8.4375 4.68359 8.4375 4.15625C8.4375 3.6582 7.99805 3.21875 7.5 3.21875C6.97266 3.21875 6.5625 3.6582 6.5625 4.15625C6.5625 4.68359 6.97266 5.09375 7.5 5.09375Z" fill="#FFFEF1"/>
</svg>
