<svg width="18" height="12" viewBox="0 0 18 12" fill="none" xmlns="http://www.w3.org/2000/svg">
<path d="M17.625 0.75H0.75V12H17.625V0.75ZM15.75 4.5V5.4375H8.25V4.5H15.75ZM8.25 7.3125H15.75V8.25H8.25V7.3125ZM5.55469 3.5625V3.76758C5.73047 3.79688 6.02344 3.85547 6.16992 3.88477L6.72656 4.03125L6.43359 5.17383L5.84766 5.02734C5.75977 4.99805 5.34961 4.91016 5.23242 4.91016C4.85156 4.85156 4.55859 4.88086 4.38281 4.96875C4.20703 5.05664 4.14844 5.14453 4.14844 5.20312C4.11914 5.32031 4.14844 5.34961 4.14844 5.34961C4.14844 5.37891 4.17773 5.4082 4.26562 5.4668C4.44141 5.58398 4.70508 5.67188 5.11523 5.78906H5.14453C5.49609 5.90625 5.99414 6.05273 6.3457 6.31641C6.52148 6.46289 6.72656 6.63867 6.84375 6.90234C6.96094 7.16602 6.96094 7.45898 6.93164 7.78125C6.81445 8.33789 6.46289 8.71875 5.99414 8.89453C5.84766 8.95312 5.70117 9.01172 5.55469 9.04102V9.1875V9.80273H4.35352V9.1875V9.01172C4.08984 8.95312 3.73828 8.83594 3.50391 8.74805C3.44531 8.71875 3.38672 8.71875 3.35742 8.68945L2.80078 8.51367L3.18164 7.40039L3.73828 7.57617C3.79688 7.60547 3.85547 7.63477 3.91406 7.66406C4.20703 7.75195 4.5 7.83984 4.67578 7.86914C5.05664 7.92773 5.34961 7.89844 5.52539 7.83984C5.70117 7.75195 5.75977 7.66406 5.75977 7.57617C5.78906 7.45898 5.75977 7.40039 5.75977 7.37109C5.75977 7.3418 5.73047 7.3125 5.64258 7.25391C5.4668 7.13672 5.20312 7.04883 4.79297 6.90234H4.73438C4.38281 6.78516 3.94336 6.66797 3.5918 6.43359C3.41602 6.28711 3.21094 6.11133 3.09375 5.84766C2.97656 5.58398 2.94727 5.29102 3.00586 4.99805C3.09375 4.4707 3.47461 4.08984 3.91406 3.88477C4.06055 3.82617 4.20703 3.76758 4.38281 3.73828V3.5625V2.97656H5.55469V3.5625Z" fill="#FFFEF1"/>
</svg>
