<svg width="48" height="48" viewBox="0 0 48 48" fill="none" xmlns="http://www.w3.org/2000/svg">
<g clip-path="url(#clip0_1355_5291)">
<rect x="0.5" y="0.5" width="47" height="47" rx="23.5" stroke="url(#paint0_linear_1355_5291)"/>
<path fill-rule="evenodd" clip-rule="evenodd" d="M20.5782 37.3092C20.5782 37.7961 20.2667 37.958 19.8 37.958C14.0448 36.0104 10 30.4925 10 23.9997C10 17.508 14.0448 11.9902 19.8 10.0425C20.2667 9.87943 20.5782 10.2044 20.5782 10.6913V11.8271C20.5812 11.9944 20.5391 12.1593 20.4565 12.3029C20.374 12.4465 20.2545 12.5629 20.1115 12.639C15.6 14.4247 12.4885 18.8068 12.4885 23.9997C12.4885 29.1937 15.7552 33.7377 20.1115 35.3616C20.4218 35.5235 20.5782 35.8485 20.5782 36.1723V37.3092ZM25.2448 33.2508C25.2448 33.5746 24.9333 33.8996 24.6218 33.8996H23.3782C23.0667 33.8996 22.7552 33.5746 22.7552 33.2508V31.302C20.2667 30.977 19.0218 29.5163 18.5552 27.4068C18.5552 27.0818 18.7115 26.7568 19.0218 26.7568H20.4218C20.7333 26.7568 20.8885 26.9199 21.0448 27.2437C21.3552 28.3806 21.9782 29.3544 24 29.3544C25.5552 29.3544 26.6448 28.5425 26.6448 27.2437C26.6448 25.9461 26.0218 25.4592 23.8448 25.1341C20.5782 24.6472 19.0218 23.6734 19.0218 20.9139C19.0218 18.8044 20.5782 17.1818 22.7552 16.8568V14.9092C22.7552 14.5841 23.0667 14.2604 23.3782 14.2604H24.6218C24.9333 14.2604 25.2448 14.5841 25.2448 14.9092V16.8568C27.1115 17.1818 28.3552 18.3175 28.6667 20.1032C28.6667 20.427 28.5115 20.752 28.2 20.752H26.9552C26.6448 20.752 26.4885 20.5901 26.3333 20.2651C26.0218 19.1294 25.2448 18.6425 23.8448 18.6425C22.2885 18.6425 21.5115 19.4532 21.5115 20.5901C21.5115 21.7258 21.9782 22.3746 24.3115 22.6996C27.5782 23.1865 29.1333 24.1603 29.1333 26.9199C29.1333 29.0294 27.5782 30.8151 25.2448 31.302V33.2496V33.2508ZM27.4218 37.308C27.4218 37.7949 27.7333 38.1199 28.2 37.958C33.9552 36.0104 38 30.4913 38 23.9984C38 17.5056 33.8 11.9877 28.2 10.0401C27.7333 10.0401 27.4218 10.2032 27.4218 10.6901V11.8258C27.4218 12.1508 27.5782 12.4746 27.8885 12.6377C32.2448 14.2604 35.5115 18.8056 35.5115 23.9984C35.5115 29.1913 32.4 33.5746 27.8885 35.3591C27.5782 35.5223 27.4218 35.846 27.4218 36.1711V37.3068V37.308Z" fill="url(#paint1_linear_1355_5291)"/>
</g>
<defs>
<linearGradient id="paint0_linear_1355_5291" x1="113.5" y1="139.5" x2="-20.5" y2="-23.5" gradientUnits="userSpaceOnUse">
<stop stop-color="#839DFB" stop-opacity="0.1"/>
<stop offset="1" stop-color="#7AC8E9"/>
</linearGradient>
<linearGradient id="paint1_linear_1355_5291" x1="70.5" y1="72" x2="-19.5" y2="-21.5" gradientUnits="userSpaceOnUse">
<stop stop-color="#839DFB" stop-opacity="0.4"/>
<stop offset="1" stop-color="#7AC8E9"/>
</linearGradient>
<clipPath id="clip0_1355_5291">
<rect width="48" height="48" fill="white"/>
</clipPath>
</defs>
</svg>
