<svg width="114" height="30" viewBox="0 0 114 30" fill="none" xmlns="http://www.w3.org/2000/svg">
<path d="M40.2834 16.6572C40.2834 14.9503 40.6646 13.4258 41.4269 12.0835C42.2057 10.7246 43.258 9.67234 44.5837 8.92663C45.926 8.16435 47.4257 7.7832 49.0829 7.7832C51.0217 7.7832 52.7203 8.28035 54.1786 9.27463C55.6369 10.2689 56.656 11.6443 57.236 13.4009H53.234C52.8363 12.5723 52.2729 11.9509 51.5437 11.5366C50.8312 11.1223 50.0026 10.9152 49.058 10.9152C48.0472 10.9152 47.144 11.1555 46.3486 11.6361C45.5697 12.1001 44.9566 12.7629 44.5092 13.6246C44.0783 14.4863 43.8629 15.4972 43.8629 16.6572C43.8629 17.8006 44.0783 18.8115 44.5092 19.6898C44.9566 20.5515 45.5697 21.2226 46.3486 21.7032C47.144 22.1672 48.0472 22.3992 49.058 22.3992C50.0026 22.3992 50.8312 22.1921 51.5437 21.7778C52.2729 21.3469 52.8363 20.7172 53.234 19.8886H57.236C56.656 21.6618 55.6369 23.0455 54.1786 24.0398C52.7369 25.0175 51.0383 25.5063 49.0829 25.5063C47.4257 25.5063 45.926 25.1335 44.5837 24.3878C43.258 23.6255 42.2057 22.5732 41.4269 21.2309C40.6646 19.8886 40.2834 18.3641 40.2834 16.6572Z" fill="#FFFEF1" fill-opacity="0.25"/>
<path d="M59.3135 18.4221C59.3135 17.0301 59.587 15.7955 60.1338 14.7183C60.6972 13.6412 61.4512 12.8126 62.3958 12.2326C63.357 11.6526 64.4258 11.3626 65.6024 11.3626C66.6298 11.3626 67.5247 11.5698 68.287 11.9841C69.0658 12.3983 69.6872 12.9203 70.1512 13.5501V11.5863H73.6561V25.3572H70.1512V23.3438C69.7038 23.9901 69.0824 24.5286 68.287 24.9595C67.5081 25.3738 66.605 25.5809 65.5775 25.5809C64.4175 25.5809 63.357 25.2826 62.3958 24.6861C61.4512 24.0895 60.6972 23.2526 60.1338 22.1755C59.587 21.0818 59.3135 19.8306 59.3135 18.4221ZM70.1512 18.4718C70.1512 17.6266 69.9855 16.9058 69.6541 16.3092C69.3227 15.6961 68.8752 15.2321 68.3118 14.9172C67.7484 14.5858 67.1435 14.4201 66.4972 14.4201C65.851 14.4201 65.2544 14.5775 64.7075 14.8923C64.1607 15.2072 63.7132 15.6712 63.3652 16.2843C63.0338 16.8809 62.8681 17.5935 62.8681 18.4221C62.8681 19.2506 63.0338 19.9798 63.3652 20.6095C63.7132 21.2226 64.1607 21.6949 64.7075 22.0263C65.271 22.3578 65.8675 22.5235 66.4972 22.5235C67.1435 22.5235 67.7484 22.3661 68.3118 22.0512C68.8752 21.7198 69.3227 21.2558 69.6541 20.6592C69.9855 20.0461 70.1512 19.3169 70.1512 18.4718Z" fill="#FFFEF1" fill-opacity="0.25"/>
<path d="M80.5349 13.5998C80.9824 12.9369 81.5955 12.3983 82.3744 11.9841C83.1698 11.5698 84.0729 11.3626 85.0838 11.3626C86.2604 11.3626 87.3209 11.6526 88.2655 12.2326C89.2266 12.8126 89.9806 13.6412 90.5275 14.7183C91.0909 15.7789 91.3726 17.0135 91.3726 18.4221C91.3726 19.8306 91.0909 21.0818 90.5275 22.1755C89.9806 23.2526 89.2266 24.0895 88.2655 24.6861C87.3209 25.2826 86.2604 25.5809 85.0838 25.5809C84.0564 25.5809 83.1532 25.3821 82.3744 24.9843C81.6121 24.5701 80.9989 24.0398 80.5349 23.3935V25.3572H77.0549V6.96292H80.5349V13.5998ZM87.8181 18.4221C87.8181 17.5935 87.6441 16.8809 87.2961 16.2843C86.9646 15.6712 86.5172 15.2072 85.9538 14.8923C85.4069 14.5775 84.8104 14.4201 84.1641 14.4201C83.5344 14.4201 82.9378 14.5858 82.3744 14.9172C81.8275 15.2321 81.3801 15.6961 81.0321 16.3092C80.7006 16.9223 80.5349 17.6432 80.5349 18.4718C80.5349 19.3003 80.7006 20.0212 81.0321 20.6343C81.3801 21.2475 81.8275 21.7198 82.3744 22.0512C82.9378 22.3661 83.5344 22.5235 84.1641 22.5235C84.8104 22.5235 85.4069 22.3578 85.9538 22.0263C86.5172 21.6949 86.9646 21.2226 87.2961 20.6095C87.6441 19.9963 87.8181 19.2672 87.8181 18.4221Z" fill="#FFFEF1" fill-opacity="0.25"/>
<path d="M95.6663 9.94577C95.0532 9.94577 94.5395 9.7552 94.1252 9.37406C93.7275 8.97634 93.5286 8.48749 93.5286 7.90749C93.5286 7.32749 93.7275 6.84692 94.1252 6.46577C94.5395 6.06806 95.0532 5.8692 95.6663 5.8692C96.2795 5.8692 96.7849 6.06806 97.1826 6.46577C97.5969 6.84692 97.804 7.32749 97.804 7.90749C97.804 8.48749 97.5969 8.97634 97.1826 9.37406C96.7849 9.7552 96.2795 9.94577 95.6663 9.94577ZM97.3815 11.5863V25.3572H93.9015V11.5863H97.3815Z" fill="#FFFEF1" fill-opacity="0.25"/>
<path d="M108.451 11.3875C110.091 11.3875 111.417 11.9095 112.428 12.9535C113.439 13.9809 113.944 15.4226 113.944 17.2786V25.3572H110.464V17.7509C110.464 16.6572 110.191 15.8203 109.644 15.2403C109.097 14.6438 108.351 14.3455 107.407 14.3455C106.446 14.3455 105.683 14.6438 105.12 15.2403C104.573 15.8203 104.3 16.6572 104.3 17.7509V25.3572H100.82V11.5863H104.3V13.3015C104.764 12.7049 105.352 12.2409 106.065 11.9095C106.794 11.5615 107.589 11.3875 108.451 11.3875Z" fill="#FFFEF1" fill-opacity="0.25"/>
<path fill-rule="evenodd" clip-rule="evenodd" d="M0.0561523 11.0125L14.5562 0.5L29.0562 11.0125V29.5H16.3282V25.1482H22.5312L14.5562 7.025L6.58115 25.1482H12.7835V29.5H0.0561523V11.0125ZM12.7835 29.5H16.3282H12.7835Z" fill="#FFFEF1" fill-opacity="0.25"/>
</svg>
