<svg width="186" height="18" viewBox="0 0 186 18" fill="none" xmlns="http://www.w3.org/2000/svg">
<g clip-path="url(#clip0_3490_5413)">
<path d="M0.138672 2.22382V16.0151H0.575609H1.01255V2.22382H0.575609H0.138672Z" fill="#FFFEF1" fill-opacity="0.25"/>
<path d="M2.79416 1.4917H2.35352V16.747H2.79416H3.23109H3.66803V1.4917H3.23109H2.79416Z" fill="#FFFEF1" fill-opacity="0.25"/>
<path d="M13.396 0.267639H12.0815V6.00068C12.0603 6.11779 11.9851 6.22344 11.8717 6.29521C11.7584 6.367 11.6158 6.39926 11.4742 6.38515H7.80837C7.66684 6.39926 7.52425 6.367 7.41088 6.29521C7.29749 6.22344 7.22224 6.11779 7.20111 6.00068V0.267639H5.00903V17.9712H7.20111V11.7399C7.22137 11.6222 7.29627 11.5158 7.40974 11.4434C7.52321 11.371 7.6663 11.3383 7.80837 11.3523H11.4816C11.6237 11.3383 11.7668 11.371 11.8803 11.4434C11.9937 11.5158 12.0686 11.6222 12.0889 11.7399V17.9773H14.281V0.267639H13.4034H13.396Z" fill="#FFFEF1" fill-opacity="0.25"/>
<path d="M18.2773 2.22382V16.0151H18.7143H19.1549V2.22382H18.7143H18.2773Z" fill="#FFFEF1" fill-opacity="0.25"/>
<path d="M16.059 1.4917H15.6221V16.747H16.059H16.4997H16.9366V1.4917H16.4997H16.059Z" fill="#FFFEF1" fill-opacity="0.25"/>
<path d="M39.5076 7.02729H31.491V1.95227H27.3044V16.2812H31.491V10.7582H39.5076V16.2812H43.6534V1.95227H39.5076V7.02729Z" fill="#FFFEF1" fill-opacity="0.25"/>
<path d="M54.9823 1.7196C48.4152 1.7196 45.1357 3.98572 45.1357 9.10381C45.1357 14.2219 48.4152 16.5139 54.9823 16.5139C61.5494 16.5139 64.8291 14.2219 64.8291 9.10381C64.8291 3.98572 61.5171 1.7196 54.9823 1.7196ZM54.9823 12.7916C50.7879 12.7916 49.3141 12.1884 49.3141 9.10381C49.3141 6.01917 50.8202 5.44186 54.9823 5.44186C59.1444 5.44186 60.6508 6.01917 60.6508 9.10381C60.6508 12.1884 59.1607 12.7916 54.9823 12.7916Z" fill="#FFFEF1" fill-opacity="0.25"/>
<path d="M70.4482 1.95227H66.2861V16.2812H80.878V12.6021H70.4482V1.95227Z" fill="#FFFEF1" fill-opacity="0.25"/>
<path d="M91.1781 1.7196C84.611 1.7196 81.3315 3.98572 81.3315 9.10381C81.3315 14.2219 84.611 16.5139 91.1781 16.5139C97.7452 16.5139 101.017 14.2219 101.017 9.10381C101.017 3.98572 97.721 1.7196 91.1781 1.7196ZM91.1781 12.7916C86.9918 12.7916 85.5099 12.1884 85.5099 9.10381C85.5099 6.01917 87.0242 5.44186 91.1781 5.44186C95.3323 5.44186 96.8465 6.01917 96.8465 9.10381C96.8465 12.1884 95.3646 12.7916 91.1781 12.7916Z" fill="#FFFEF1" fill-opacity="0.25"/>
<path d="M102.078 8.97458C102.078 13.1363 105.519 16.2812 110.175 16.2812H119.415V7.32883H110.799V10.5169H115.301V12.602H110.175C107.859 12.602 106.208 11.2493 106.208 9.15548C106.208 7.0617 107.916 5.66589 110.175 5.66589H119.439V1.935H110.175C105.503 1.95223 102.078 4.77843 102.078 8.97458Z" fill="#FFFEF1" fill-opacity="0.25"/>
<path d="M148.299 1.7196C147.758 1.72529 147.227 1.87496 146.755 2.15489C146.282 2.43482 145.883 2.83616 145.594 3.32227L140.994 11.6284H145.926L148.218 6.76881L150.647 10.56C151.092 11.2493 151.651 12.1282 152.015 12.6365C151.368 12.6365 150.396 12.6365 149.586 12.6365H136.946C136.618 12.2796 136.266 11.9485 135.893 11.6456C136.896 11.4674 137.804 10.9099 138.452 10.0756C139.099 9.24125 139.441 8.18628 139.416 7.1048C139.416 3.01206 135.553 1.98671 132.492 1.98671H121.115V16.3157H125.285V12.5245H131.682L134.687 16.3157H159.368L150.955 3.39117C150.686 2.89183 150.3 2.47533 149.834 2.18234C149.368 1.88935 148.839 1.72988 148.299 1.7196ZM125.285 8.95735V5.68315H132.848C134.282 5.68315 135.14 6.23459 135.14 7.34609C135.14 8.45759 134.136 8.95735 132.848 8.95735H125.285Z" fill="#FFFEF1" fill-opacity="0.25"/>
<path d="M181.499 3.68403C181.38 3.12052 181.082 2.61767 180.656 2.25995C180.23 1.90223 179.701 1.71139 179.158 1.71949C178.68 1.71277 178.21 1.85208 177.804 2.12085C177.398 2.38962 177.072 2.77658 176.867 3.23598L174.713 7.3029C173.522 9.50869 173.004 10.5599 172.559 11.6111C172.097 10.6029 171.571 9.53453 170.381 7.3029L168.227 3.25322C168.03 2.79183 167.71 2.40214 167.307 2.13252C166.904 1.86291 166.435 1.72527 165.959 1.73673C165.414 1.72626 164.882 1.91589 164.453 2.27368C164.024 2.63146 163.724 3.13558 163.603 3.70128L160.121 16.2983H164.17L165.441 11.3095C165.846 9.69821 166.145 8.50057 166.348 7.36323C166.769 8.32824 167.255 9.33632 168.235 11.3095L170.049 14.9283C170.267 15.4071 170.607 15.8109 171.031 16.0934C171.455 16.3759 171.945 16.5257 172.445 16.5257C172.946 16.5257 173.436 16.3759 173.859 16.0934C174.283 15.8109 174.624 15.4071 174.842 14.9283L176.656 11.3267C177.579 9.46557 178.081 8.37132 178.527 7.36323C178.745 8.52641 179.029 9.68096 179.45 11.3095L180.721 16.2983H184.867L181.499 3.68403Z" fill="#FFFEF1" fill-opacity="0.25"/>
</g>
<defs>
<clipPath id="clip0_3490_5413">
<rect width="185" height="18" fill="white" transform="translate(0.0529785)"/>
</clipPath>
</defs>
</svg>
